<?xml version="1.0" encoding="utf-8"?>
<!-- Generator: Adobe Illustrator 22.0.1, SVG Export Plug-In . SVG Version: 6.00 Build 0)  -->
<svg version="1.1" xmlns="http://www.w3.org/2000/svg" xmlns:xlink="http://www.w3.org/1999/xlink" x="0px" y="0px"
	 viewBox="0 0 375 812" style="enable-background:new 0 0 375 812;" xml:space="preserve">
<style type="text/css">
	.st0{opacity:0.2;}
	.st1{fill:#80DEE5;}
	.st2{fill:#8BD859;}
	.st3{opacity:0.15;fill:#011627;}
	.st4{fill:#513715;}
	.st5{opacity:0.25;fill:#011627;}
	.st6{fill:#D3954A;}
	.st7{fill:#011627;}
	.st8{opacity:0.5;}
	.st9{fill:#FFFFFF;}
	.st10{opacity:0.5;fill:#FFFFFF;}
	.st11{opacity:0.5;fill:#011627;}
	.st12{fill:#63C132;}
	.st13{fill:#8E5B12;}
	.st14{opacity:0.25;fill:none;stroke:#011627;stroke-width:7;stroke-linecap:round;stroke-miterlimit:10;}
	.st15{fill:#FFBB1E;}
	.st16{fill:#FFE226;}
	.st17{fill:#FFF244;}
	.st18{fill:#F6511D;}
	.st19{fill:#011627;stroke:#011627;stroke-width:3.5264;stroke-miterlimit:10;}
	.st20{fill:#8FD5A6;}
	.st21{fill:#48BF84;}
	.st22{fill:#329F5B;}
	.st23{fill:#F9CC2A;}
	.st24{opacity:0.25;fill:#8FD5A6;}
	.st25{fill:#9AD1D4;}
	.st26{fill:#5DB7DE;}
	.st27{fill:#2176FF;}
	.st28{fill:#1B4965;}
	.st29{fill:#FFA9E7;}
	.st30{opacity:0.25;}
	.st31{fill:#AA762B;}
	.st32{fill:#966524;}
	.st33{fill:#E2E2E2;}
	.st34{fill:#143B56;}
	.st35{fill:#6CA4F4;}
	.st36{opacity:0.15;}
	.st37{fill:none;stroke:#FFFFFF;stroke-width:90;stroke-linecap:round;stroke-miterlimit:10;}
	.st38{opacity:0.5;fill:none;stroke:#FFFFFF;stroke-width:3;stroke-linecap:round;stroke-miterlimit:10;}
	.st39{fill:#71C13D;}
	.st40{fill:none;stroke:#8E5B12;stroke-width:10;stroke-linecap:round;stroke-miterlimit:10;}
	.st41{fill:#A4C9F7;}
	.st42{fill:#FFFFFF;stroke:#E8E8E8;stroke-width:10;stroke-miterlimit:10;}
	.st43{fill:#E8E8E8;}
	.st44{fill:#A4C9F7;stroke:#7AA2CE;stroke-width:4;stroke-linecap:round;stroke-linejoin:round;stroke-miterlimit:10;}
	.st45{fill:#CAE5FF;}
	.st46{fill:#CCCCCC;}
	.st47{opacity:0.25;fill:none;stroke:#011627;stroke-width:4.8829;stroke-linecap:round;stroke-miterlimit:10;}
	.st48{fill:#2D2D2D;}
	.st49{fill:#011627;stroke:#011627;stroke-width:8.2967;stroke-miterlimit:10;}
	.st50{fill:#AAAAAA;}
	.st51{fill:#C4C4C4;}
	.st52{fill:#4990C4;}
	.st53{fill:#6EAFEA;}
	.st54{fill:#F4C647;}
	.st55{fill:#F8C815;}
	.st56{fill:#345994;}
	.st57{fill:#3F4040;}
	.st58{fill:none;stroke:#FFFFFF;stroke-width:2;stroke-linecap:round;stroke-linejoin:round;stroke-miterlimit:10;}
	.st59{display:none;fill:#FFFFFF;}
	.st60{fill:#C6C6C6;}
	.st61{fill:#F7F7F7;}
	.st62{fill:#011627;stroke:#011627;stroke-width:5.4418;stroke-miterlimit:10;}
	.st63{fill:#FFCA0C;}
	.st64{fill:none;stroke:#FFFFFF;stroke-width:4;stroke-linecap:round;stroke-linejoin:round;stroke-miterlimit:10;}
	.st65{fill:none;stroke:#E5E5E5;stroke-width:15;stroke-linecap:round;stroke-miterlimit:10;}
	.st66{fill:none;stroke:#FFE226;stroke-width:15;stroke-linecap:round;stroke-miterlimit:10;}
	.st67{opacity:0.45;}
	.st68{fill:#B5B5B5;}
	.st69{fill:none;stroke:#B5B5B5;stroke-width:9;stroke-miterlimit:10;}
	.st70{opacity:0.75;}
	.st71{fill:none;stroke:#FFFFFF;stroke-width:4;stroke-linecap:round;stroke-miterlimit:10;}
	.st72{fill:#DBDBDB;}
	.st73{opacity:0.3;}
	.st74{fill:none;stroke:#353535;stroke-width:4;stroke-linecap:round;stroke-linejoin:round;stroke-miterlimit:10;}
	.st75{fill:none;stroke:#E5E5E5;stroke-width:4;stroke-linecap:round;stroke-linejoin:round;stroke-miterlimit:10;}
	.st76{opacity:0.8;}
	.st77{fill:url(#SVGID_2_);}
	.st78{fill:#F06728;}
	.st79{fill:#F6C718;}
	.st80{fill:#212120;}
	.st81{fill:none;stroke:#000000;stroke-miterlimit:10;}
	.st82{fill:none;stroke:#DDDDDD;stroke-linecap:round;stroke-linejoin:round;}
	.st83{fill:none;stroke:#DDDDDD;stroke-linecap:round;stroke-linejoin:round;stroke-dasharray:5.007,10.014;}
	.st84{fill:none;stroke:#DDDDDD;stroke-linecap:round;stroke-linejoin:round;stroke-dasharray:5.1976,10.3952;}
	.st85{fill:none;stroke:#DDDDDD;stroke-linecap:round;stroke-linejoin:round;stroke-dasharray:5.0075,10.0151;}
	.st86{fill:none;stroke:#DDDDDD;stroke-linecap:round;stroke-linejoin:round;stroke-dasharray:5.0907,10.1814;}
	.st87{fill:none;stroke:#E5E5E5;stroke-width:7;stroke-linecap:round;stroke-miterlimit:10;}
	.st88{fill:none;stroke:#FFE226;stroke-width:7;stroke-linecap:round;stroke-miterlimit:10;}
	.st89{fill:#011627;stroke:#011627;stroke-width:7.7079;stroke-miterlimit:10;}
	.st90{fill:#FFFF4C;}
	.st91{fill:#FFA400;}
	.st92{fill:none;stroke:#BCBCBC;stroke-width:2;stroke-linecap:round;stroke-miterlimit:10;}
	.st93{fill:#BCBCBC;}
	.st94{fill:#3B5998;}
	.st95{fill:none;stroke:#F8C815;stroke-width:5.5603;stroke-linecap:round;stroke-miterlimit:10;}
	.st96{fill:#011627;stroke:#011627;stroke-width:1.9321;stroke-miterlimit:10;}
	.st97{fill:#011627;stroke:#011627;stroke-width:7.8142;stroke-miterlimit:10;}
	.st98{opacity:0.12;fill:#FFFFFF;}
	.st99{opacity:0.13;fill:#FFFFFF;}
	.st100{opacity:0.14;fill:#FFFFFF;}
	.st101{opacity:0.15;fill:#FFFFFF;}
	.st102{opacity:0.16;fill:#FFFFFF;}
	.st103{opacity:0.17;fill:#FFFFFF;}
	.st104{fill:#53AD3D;}
	.st105{fill:#68A243;}
	.st106{fill:#4E7932;}
	.st107{fill:none;stroke:#49712F;stroke-width:5;stroke-linecap:round;stroke-miterlimit:10;}
	.st108{opacity:0.25;fill:none;stroke:#000000;stroke-width:5;stroke-linecap:round;stroke-miterlimit:10;}
	.st109{fill:#EDD983;}
	.st110{clip-path:url(#SVGID_4_);}
	.st111{opacity:0.1;fill:#FFFFFF;}
	.st112{opacity:0.18;fill:#FFFFFF;}
	.st113{opacity:0.2;fill:#FFFFFF;}
	.st114{clip-path:url(#SVGID_5_);}
	.st115{clip-path:url(#SVGID_7_);}
	.st116{fill:#7AADF5;}
	.st117{fill:#8AB7F6;}
	.st118{fill:#9BC1F7;}
	.st119{fill:#ABCBF8;}
	.st120{fill:#BAD4F9;}
	.st121{fill:#C8DDFA;}
	.st122{clip-path:url(#SVGID_9_);}
</style>
<g id="Layer_1">
</g>
<g id="Layer_2">
	<g>
		<rect x="0" y="56.13" class="st2" width="375" height="755.87"/>
		<path class="st105" d="M0,56.13l0,486.569c0,6.904,5.596,12.5,12.5,12.5h0c6.904,0,12.5,5.596,12.5,12.5v11.709
			c0,6.904,5.596,12.5,12.5,12.5h0c6.904,0,12.5-5.596,12.5-12.5v-48.772c0-6.904,5.596-12.5,12.5-12.5h0
			c6.904,0,12.5,5.596,12.5,12.5v65.583c0,6.904,5.596,12.5,12.5,12.5h0c6.904,0,12.5,5.596,12.5,12.5v8.122
			c0,6.904,5.596,12.5,12.5,12.5h0c6.904,0,12.5-5.596,12.5-12.5v-27.945c0-6.904,5.596-12.5,12.5-12.5h0
			c6.904,0,12.5-5.596,12.5-12.5v-20.919c0-6.904,5.596-12.5,12.5-12.5h0c6.904,0,12.5,5.596,12.5,12.5v36.476
			c0,6.904,5.596,12.5,12.5,12.5h0c6.904,0,12.5-5.596,12.5-12.5v-59.431c0-6.904,5.596-12.5,12.5-12.5h0
			c6.904,0,12.5,5.596,12.5,12.5v8.494c0,6.904,5.596,12.5,12.5,12.5h0c6.904,0,12.5-5.596,12.5-12.5v-31.453
			c0-6.904,5.596-12.5,12.5-12.5h0c6.904,0,12.5,5.596,12.5,12.5v10.125c0,6.904,5.596,12.5,12.5,12.5h0
			c6.904,0,12.5,5.596,12.5,12.5v21.923c0,6.904,5.596,12.5,12.5,12.5h0c6.904,0,12.5-5.596,12.5-12.5v-31.458
			c0-6.904,5.596-12.5,12.5-12.5h0c6.904,0,12.5,5.596,12.5,12.5v67.34c0,6.904,5.596,12.5,12.5,12.5h0
			c6.904,0,12.5-5.596,12.5-12.5V56.13H0z"/>
		<path class="st106" d="M375,56.13v252.208c0,6.904-5.596,12.5-12.5,12.5h0c-6.904,0-12.5-5.596-12.5-12.5v-1.096
			c0-6.904-5.596-12.5-12.5-12.5h0c-6.904,0-12.5-5.596-12.5-12.5v-66.833c0-6.904-5.596-12.5-12.5-12.5h0
			c-6.904,0-12.5,5.596-12.5,12.5v31.453c0,6.904-5.596,12.5-12.5,12.5h0c-6.904,0-12.5,5.596-12.5,12.5v30.203
			c0,6.904-5.596,12.5-12.5,12.5h0c-6.904,0-12.5-5.596-12.5-12.5v-52.526c0-6.354-5.151-11.505-11.505-11.505h-1.99
			c-6.354,0-11.505,5.151-11.505,11.505v0c0,6.354-5.151,11.505-11.505,11.505h-1.99c-6.354,0-11.505-5.151-11.505-11.505v-11.171
			c0-6.904-5.596-12.5-12.5-12.5h0c-6.904,0-12.5,5.596-12.5,12.5v34.088c0,6.904-5.596,12.5-12.5,12.5h0
			c-6.904,0-12.5-5.596-12.5-12.5v-35.974c0-6.904-5.596-12.5-12.5-12.5h0c-6.904,0-12.5,5.596-12.5,12.5v61.318
			c0,6.904-5.596,12.5-12.5,12.5h0c-6.904,0-12.5-5.596-12.5-12.5v-36.476c0-6.904-5.596-12.5-12.5-12.5h0
			c-6.904,0-12.5,5.596-12.5,12.5v23.93c0,6.904-5.596,12.5-12.5,12.5h0c-6.904,0-12.5-5.596-12.5-12.5v-44.255
			c0-6.904-5.596-12.5-12.5-12.5h0c-6.904,0-12.5,5.596-12.5,12.5v94.189c0,6.904-5.596,12.5-12.5,12.5h0
			c-6.904,0-12.5-5.596-12.5-12.5L0,56.13H375z"/>
	</g>
	<g class="st30">
		<line class="st107" x1="12.5" y1="747.538" x2="12.5" y2="840.174"/>
		<line class="st107" x1="12.5" y1="520.871" x2="12.5" y2="652.267"/>
		<line class="st107" x1="12.5" y1="318.559" x2="12.5" y2="389.538"/>
		<line class="st107" x1="12.5" y1="188.871" x2="12.5" y2="210.871"/>
		<line class="st107" x1="12.5" y1="74.403" x2="12.5" y2="153.538"/>
		<line class="st107" x1="37.5" y1="724.871" x2="37.5" y2="764.871"/>
		<line class="st107" x1="37.5" y1="540.871" x2="37.5" y2="625.1"/>
		<line class="st107" x1="37.5" y1="425.221" x2="37.5" y2="489.538"/>
		<line class="st107" x1="37.5" y1="318.559" x2="37.5" y2="407.538"/>
		<line class="st107" x1="37.5" y1="171.204" x2="37.5" y2="269.204"/>
		<line class="st107" x1="362.5" y1="715.6" x2="362.5" y2="840.174"/>
		<line class="st107" x1="362.5" y1="379.538" x2="362.5" y2="573.538"/>
		<line class="st107" x1="362.5" y1="251.637" x2="362.5" y2="315.637"/>
		<line class="st107" x1="362.5" y1="123.161" x2="362.5" y2="187.137"/>
		<line class="st107" x1="337.5" y1="649.538" x2="337.5" y2="840.174"/>
		<line class="st107" x1="337.5" y1="522.204" x2="337.5" y2="586.569"/>
		<line class="st107" x1="337.5" y1="458.135" x2="337.5" y2="489.538"/>
		<line class="st107" x1="337.5" y1="330.204" x2="337.5" y2="393.817"/>
		<line class="st107" x1="337.5" y1="74.403" x2="337.5" y2="171.204"/>
		<line class="st107" x1="312.5" y1="627.538" x2="312.5" y2="724.871"/>
		<line class="st107" x1="312.5" y1="482.204" x2="312.5" y2="546.496"/>
		<line class="st107" x1="312.5" y1="354.048" x2="312.5" y2="434.065"/>
		<line class="st107" x1="312.5" y1="210.871" x2="312.5" y2="273.722"/>
		<line class="st107" x1="312.5" y1="74.403" x2="312.5" y2="162.541"/>
		<line class="st107" x1="287.5" y1="573.538" x2="287.5" y2="686.204"/>
		<line class="st107" x1="287.5" y1="477.538" x2="287.5" y2="492.871"/>
		<line class="st107" x1="287.5" y1="428.871" x2="287.5" y2="461.85"/>
		<line class="st107" x1="287.5" y1="366.793" x2="287.5" y2="396.304"/>
		<line class="st107" x1="287.5" y1="245.538" x2="287.5" y2="301.906"/>
		<line class="st107" x1="262.5" y1="759.538" x2="262.5" y2="840.174"/>
		<line class="st107" x1="262.5" y1="597.538" x2="262.5" y2="694.631"/>
		<line class="st107" x1="262.5" y1="469.538" x2="262.5" y2="501.538"/>
		<line class="st107" x1="262.5" y1="310.449" x2="262.5" y2="372.559"/>
		<line class="st107" x1="262.5" y1="150.204" x2="262.5" y2="181.538"/>
		<line class="st107" x1="237.5" y1="753.934" x2="237.5" y2="840.174"/>
		<line class="st107" x1="237.5" y1="580.434" x2="237.5" y2="610.59"/>
		<line class="st107" x1="237.5" y1="402.204" x2="237.5" y2="450.704"/>
		<line class="st107" x1="237.5" y1="237.02" x2="237.5" y2="366.793"/>
		<line class="st107" x1="237.5" y1="74.403" x2="237.5" y2="171.804"/>
		<line class="st107" x1="212.5" y1="679.434" x2="212.5" y2="741.538"/>
		<line class="st107" x1="212.5" y1="533.538" x2="212.5" y2="597.538"/>
		<line class="st107" x1="212.5" y1="437.538" x2="212.5" y2="501.538"/>
		<line class="st107" x1="212.5" y1="325.538" x2="212.5" y2="372.559"/>
		<line class="st107" x1="212.5" y1="181.538" x2="212.5" y2="245.538"/>
		<line class="st107" x1="187.5" y1="747.538" x2="187.5" y2="840.174"/>
		<line class="st107" x1="187.5" y1="604.454" x2="187.5" y2="715.6"/>
		<line class="st107" x1="187.5" y1="492.871" x2="187.5" y2="556.871"/>
		<line class="st107" x1="187.5" y1="366.793" x2="187.5" y2="428.871"/>
		<line class="st107" x1="187.5" y1="299.871" x2="187.5" y2="318.559"/>
		<line class="st107" x1="187.5" y1="74.403" x2="187.5" y2="238.538"/>
		<line class="st107" x1="162.5" y1="640.746" x2="162.5" y2="753.934"/>
		<line class="st107" x1="162.5" y1="512.204" x2="162.5" y2="580.434"/>
		<line class="st107" x1="162.5" y1="434.065" x2="162.5" y2="482.204"/>
		<line class="st107" x1="162.5" y1="354.048" x2="162.5" y2="379.538"/>
		<line class="st107" x1="162.5" y1="171.204" x2="162.5" y2="310.449"/>
		<line class="st107" x1="137.5" y1="759.538" x2="137.5" y2="840.174"/>
		<line class="st107" x1="137.5" y1="529.1" x2="137.5" y2="569.184"/>
		<line class="st107" x1="137.5" y1="379.538" x2="137.5" y2="399.637"/>
		<line class="st107" x1="137.5" y1="261.538" x2="137.5" y2="349.752"/>
		<line class="st107" x1="137.5" y1="74.403" x2="137.5" y2="167.97"/>
		<line class="st107" x1="112.5" y1="715.6" x2="112.5" y2="840.174"/>
		<line class="st107" x1="112.5" y1="515.204" x2="112.5" y2="612.871"/>
		<line class="st107" x1="112.5" y1="357.574" x2="112.5" y2="386.204"/>
		<line class="st107" x1="112.5" y1="74.403" x2="112.5" y2="219.974"/>
		<line class="st107" x1="87.5" y1="792.871" x2="87.5" y2="840.174"/>
		<line class="st107" x1="87.5" y1="718.204" x2="87.5" y2="738.204"/>
		<line class="st107" x1="87.5" y1="640.746" x2="87.5" y2="656.871"/>
		<line class="st107" x1="87.5" y1="546.496" x2="87.5" y2="622.204"/>
		<line class="st107" x1="87.5" y1="407.538" x2="87.5" y2="529.1"/>
		<line class="st107" x1="87.5" y1="219.974" x2="87.5" y2="322.585"/>
		<line class="st107" x1="62.5" y1="718.204" x2="62.5" y2="764.871"/>
		<line class="st107" x1="62.5" y1="686.204" x2="62.5" y2="703.059"/>
		<line class="st107" x1="62.5" y1="592.204" x2="62.5" y2="612.871"/>
		<line class="st107" x1="62.5" y1="457.289" x2="62.5" y2="537.305"/>
		<line class="st107" x1="62.5" y1="314.204" x2="62.5" y2="372.559"/>
		<line class="st107" x1="62.5" y1="191.538" x2="62.5" y2="285.538"/>
		<line class="st107" x1="62.5" y1="74.403" x2="62.5" y2="137.169"/>
	</g>
	<rect x="0" y="0" class="st35" width="375" height="56.13"/>
	<g>
		<defs>
			<rect id="SVGID_6_" x="0" y="0" width="375" height="56.13"/>
		</defs>
		<clipPath id="SVGID_2_">
			<use xlink:href="#SVGID_6_"  style="overflow:visible;"/>
		</clipPath>
		<g style="clip-path:url(#SVGID_2_);">
			<circle class="st116" cx="187.5" cy="0" r="180"/>
			<circle class="st117" cx="187.5" cy="0" r="150"/>
			<circle class="st118" cx="187.5" cy="0" r="120"/>
			<circle class="st119" cx="187.5" cy="0" r="90"/>
			<circle class="st120" cx="187.5" cy="0" r="60"/>
			<circle class="st121" cx="187.5" cy="0" r="30"/>
		</g>
	</g>
	<rect x="0" y="56.13" class="st109" width="375" height="25.074"/>
</g>
</svg>
