<?xml version="1.0" encoding="utf-8"?>
<!-- Generator: Adobe Illustrator 22.0.1, SVG Export Plug-In . SVG Version: 6.00 Build 0)  -->
<svg version="1.1" xmlns="http://www.w3.org/2000/svg" xmlns:xlink="http://www.w3.org/1999/xlink" x="0px" y="0px"
	 viewBox="0 0 375 812" style="enable-background:new 0 0 375 812;" xml:space="preserve">
<style type="text/css">
	.st0{opacity:0.2;}
	.st1{fill:#80DEE5;}
	.st2{fill:#8BD859;}
	.st3{opacity:0.15;fill:#011627;}
	.st4{fill:#513715;}
	.st5{opacity:0.25;fill:#011627;}
	.st6{fill:#D3954A;}
	.st7{fill:#011627;}
	.st8{opacity:0.5;}
	.st9{fill:#FFFFFF;}
	.st10{opacity:0.5;fill:#FFFFFF;}
	.st11{opacity:0.5;fill:#011627;}
	.st12{fill:#63C132;}
	.st13{fill:#8E5B12;}
	.st14{opacity:0.25;fill:none;stroke:#011627;stroke-width:7;stroke-linecap:round;stroke-miterlimit:10;}
	.st15{fill:#FFBB1E;}
	.st16{fill:#FFE226;}
	.st17{fill:#FFF244;}
	.st18{fill:#F6511D;}
	.st19{fill:#011627;stroke:#011627;stroke-width:3.5264;stroke-miterlimit:10;}
	.st20{fill:#8FD5A6;}
	.st21{fill:#48BF84;}
	.st22{fill:#329F5B;}
	.st23{fill:#F9CC2A;}
	.st24{opacity:0.25;fill:#8FD5A6;}
	.st25{fill:#9AD1D4;}
	.st26{fill:#5DB7DE;}
	.st27{fill:#2176FF;}
	.st28{fill:#1B4965;}
	.st29{fill:#FFA9E7;}
	.st30{opacity:0.25;}
	.st31{fill:#AA762B;}
	.st32{fill:#966524;}
	.st33{fill:#E2E2E2;}
	.st34{fill:#143B56;}
	.st35{fill:#6CA4F4;}
	.st36{opacity:0.15;}
	.st37{fill:none;stroke:#FFFFFF;stroke-width:90;stroke-linecap:round;stroke-miterlimit:10;}
	.st38{opacity:0.5;fill:none;stroke:#FFFFFF;stroke-width:3;stroke-linecap:round;stroke-miterlimit:10;}
	.st39{fill:#71C13D;}
	.st40{fill:none;stroke:#8E5B12;stroke-width:10;stroke-linecap:round;stroke-miterlimit:10;}
	.st41{fill:#A4C9F7;}
	.st42{fill:#FFFFFF;stroke:#E8E8E8;stroke-width:10;stroke-miterlimit:10;}
	.st43{fill:#E8E8E8;}
	.st44{fill:#A4C9F7;stroke:#7AA2CE;stroke-width:4;stroke-linecap:round;stroke-linejoin:round;stroke-miterlimit:10;}
	.st45{fill:#CAE5FF;}
	.st46{fill:#CCCCCC;}
	.st47{opacity:0.25;fill:none;stroke:#011627;stroke-width:4.8829;stroke-linecap:round;stroke-miterlimit:10;}
	.st48{fill:#2D2D2D;}
	.st49{fill:#011627;stroke:#011627;stroke-width:8.2967;stroke-miterlimit:10;}
	.st50{fill:#AAAAAA;}
	.st51{fill:#C4C4C4;}
	.st52{fill:#4990C4;}
	.st53{fill:#6EAFEA;}
	.st54{fill:#F4C647;}
	.st55{fill:#F8C815;}
	.st56{fill:#345994;}
	.st57{fill:#3F4040;}
	.st58{fill:none;stroke:#FFFFFF;stroke-width:2;stroke-linecap:round;stroke-linejoin:round;stroke-miterlimit:10;}
	.st59{display:none;fill:#FFFFFF;}
	.st60{fill:#C6C6C6;}
	.st61{fill:#F7F7F7;}
	.st62{fill:#E3F1FF;}
	.st63{fill:none;stroke:#4AB429;stroke-width:3.3909;stroke-linecap:round;stroke-miterlimit:10;}
	.st64{fill:#6FB347;}
	.st65{fill:#A2E06B;}
	.st66{fill:#011627;stroke:#011627;stroke-width:5.4418;stroke-miterlimit:10;}
	.st67{fill:#FFCA0C;}
	.st68{fill:none;stroke:#FFFFFF;stroke-width:4;stroke-linecap:round;stroke-linejoin:round;stroke-miterlimit:10;}
	.st69{fill:none;stroke:#E5E5E5;stroke-width:15;stroke-linecap:round;stroke-miterlimit:10;}
	.st70{fill:none;stroke:#FFE226;stroke-width:15;stroke-linecap:round;stroke-miterlimit:10;}
	.st71{opacity:0.45;}
	.st72{fill:#B5B5B5;}
	.st73{fill:none;stroke:#B5B5B5;stroke-width:9;stroke-miterlimit:10;}
	.st74{opacity:0.75;}
	.st75{fill:none;stroke:#FFFFFF;stroke-width:4;stroke-linecap:round;stroke-miterlimit:10;}
	.st76{fill:#DBDBDB;}
	.st77{opacity:0.3;}
	.st78{fill:none;stroke:#353535;stroke-width:4;stroke-linecap:round;stroke-linejoin:round;stroke-miterlimit:10;}
	.st79{fill:none;stroke:#E5E5E5;stroke-width:4;stroke-linecap:round;stroke-linejoin:round;stroke-miterlimit:10;}
	.st80{opacity:0.8;}
	.st81{fill:url(#SVGID_2_);}
	.st82{fill:#F06728;}
	.st83{fill:#F6C718;}
	.st84{fill:#212120;}
	.st85{fill:none;stroke:#000000;stroke-miterlimit:10;}
	.st86{fill:none;stroke:#DDDDDD;stroke-linecap:round;stroke-linejoin:round;}
	.st87{fill:none;stroke:#DDDDDD;stroke-linecap:round;stroke-linejoin:round;stroke-dasharray:5.007,10.014;}
	.st88{fill:none;stroke:#DDDDDD;stroke-linecap:round;stroke-linejoin:round;stroke-dasharray:5.1976,10.3952;}
	.st89{fill:none;stroke:#DDDDDD;stroke-linecap:round;stroke-linejoin:round;stroke-dasharray:5.0075,10.0151;}
	.st90{fill:none;stroke:#DDDDDD;stroke-linecap:round;stroke-linejoin:round;stroke-dasharray:5.0907,10.1814;}
	.st91{fill:none;stroke:#E5E5E5;stroke-width:7;stroke-linecap:round;stroke-miterlimit:10;}
	.st92{fill:none;stroke:#FFE226;stroke-width:7;stroke-linecap:round;stroke-miterlimit:10;}
	.st93{fill:#011627;stroke:#011627;stroke-width:7.7079;stroke-miterlimit:10;}
	.st94{fill:#FFA400;}
	.st95{fill:#011627;stroke:#011627;stroke-width:7.8717;stroke-miterlimit:10;}
	.st96{fill:#FFFF4C;}
	.st97{fill:none;stroke:#BCBCBC;stroke-width:2;stroke-linecap:round;stroke-miterlimit:10;}
	.st98{fill:#BCBCBC;}
	.st99{fill:#3B5998;}
	.st100{fill:none;stroke:#F8C815;stroke-width:5.5603;stroke-linecap:round;stroke-miterlimit:10;}
	.st101{fill:#011627;stroke:#011627;stroke-width:1.9321;stroke-miterlimit:10;}
	.st102{fill:#011627;stroke:#011627;stroke-width:7.8142;stroke-miterlimit:10;}
	.st103{opacity:0.12;fill:#FFFFFF;}
	.st104{opacity:0.13;fill:#FFFFFF;}
	.st105{opacity:0.14;fill:#FFFFFF;}
	.st106{opacity:0.15;fill:#FFFFFF;}
	.st107{opacity:0.16;fill:#FFFFFF;}
	.st108{opacity:0.17;fill:#FFFFFF;}
	.st109{fill:#53AD3D;}
	.st110{opacity:0.25;fill:none;stroke:#000000;stroke-width:5;stroke-linecap:round;stroke-miterlimit:10;}
	.st111{fill:#EDD983;}
	.st112{clip-path:url(#SVGID_4_);}
	.st113{opacity:0.1;fill:#FFFFFF;}
	.st114{opacity:0.18;fill:#FFFFFF;}
	.st115{opacity:0.2;fill:#FFFFFF;}
	.st116{clip-path:url(#SVGID_5_);}
	.st117{fill:#68A243;}
	.st118{fill:#4E7932;}
	.st119{fill:none;stroke:#49712F;stroke-width:5;stroke-linecap:round;stroke-miterlimit:10;}
	.st120{clip-path:url(#SVGID_7_);}
	.st121{fill:#7AADF5;}
	.st122{fill:#8AB7F6;}
	.st123{fill:#9BC1F7;}
	.st124{fill:#ABCBF8;}
	.st125{fill:#BAD4F9;}
	.st126{fill:#C8DDFA;}
	.st127{clip-path:url(#SVGID_9_);}
</style>
<g id="Layer_1">
	<g>
		<rect class="st45" width="375" height="529.167"/>
		<path class="st62" d="M325.46,198.944H222.957c-7.671,0-13.889-6.218-13.889-13.889v0c0-7.671,6.218-13.889,13.889-13.889H325.46
			c7.671,0,13.889,6.218,13.889,13.889v0C339.349,192.726,333.131,198.944,325.46,198.944z"/>
		<path class="st62" d="M336.839,268.505L336.839,268.505c0-7.671,6.218-13.889,13.889-13.889h49.537
			c7.671,0,13.889-6.218,13.889-13.889v0c0-7.671-6.218-13.889-13.889-13.889H278.433c-7.671,0-13.889,6.218-13.889,13.889v0
			c0,7.671,6.218,13.889,13.889,13.889h16.739c7.671,0,13.889,6.218,13.889,13.889v0c0,7.671-6.218,13.889-13.889,13.889h-6.25
			c-7.671,0-13.889,6.218-13.889,13.889l0,0c0,7.671,6.218,13.889,13.889,13.889h70.949c7.671,0,13.889-6.218,13.889-13.889l0,0
			c0-7.671-6.218-13.889-13.889-13.889h-9.144C343.057,282.393,336.839,276.175,336.839,268.505z"/>
		<path class="st62" d="M182.783,99.505L182.783,99.505c0,7.671-6.218,13.889-13.889,13.889h-49.537
			c-7.671,0-13.889,6.218-13.889,13.889v0c0,7.671,6.218,13.889,13.889,13.889h121.832c7.671,0,13.889-6.218,13.889-13.889v0
			c0-7.671-6.218-13.889-13.889-13.889H224.45c-7.671,0-13.889-6.218-13.889-13.889v0c0-7.671,6.218-13.889,13.889-13.889h6.25
			c7.671,0,13.889-6.218,13.889-13.889v0c0-7.671-6.218-13.889-13.889-13.889h-70.949c-7.671,0-13.889,6.218-13.889,13.889v0
			c0,7.671,6.218,13.889,13.889,13.889h9.144C176.565,85.616,182.783,91.834,182.783,99.505z"/>
		<path class="st62" d="M116.629,212.833L116.629,212.833c0-7.671,6.218-13.889,13.889-13.889h9.561
			c7.671,0,13.889-6.218,13.889-13.889v0c0-7.671-6.218-13.889-13.889-13.889H26.638c-7.671,0-13.889,6.218-13.889,13.889v0
			c0,7.671,6.218,13.889,13.889,13.889h46.716c7.671,0,13.889,6.218,13.889,13.889v0c0,7.671-6.218,13.889-13.889,13.889h-5.932
			c-7.671,0-13.889,6.218-13.889,13.889v0c0,7.671,6.218,13.889,13.889,13.889h130.469c7.671,0,13.889-6.218,13.889-13.889v0
			c0-7.671-6.218-13.889-13.889-13.889h-67.374C122.847,226.722,116.629,220.504,116.629,212.833z"/>
		<path class="st46" d="M375,296.111V812H0V302.667c41.139-15.764,92.5-4.611,118.889,42.889
			c18.306,32.944,51.146,49.424,83.986,49.424c32.847,0,65.694-16.479,83.993-49.424C306.951,309.41,341.5,294.305,375,296.111z"/>
		<path class="st2" d="M375,466.944V812H0V466.944c60.903-10.618,123.556-16.146,187.5-16.146S314.097,456.326,375,466.944z"/>
		<path class="st2" d="M375,466.944V812H0V466.944c60.903-10.618,123.556-16.146,187.5-16.146S314.097,456.326,375,466.944z"/>
		<g>
			<g>
				<g>
					<path class="st12" d="M151.658,362.044H32.115c-23.427,0-42.419-18.992-42.419-42.419v0c0-23.427,18.992-42.419,42.419-42.419
						h119.544c23.427,0,42.419,18.992,42.419,42.419v0C194.077,343.052,175.086,362.044,151.658,362.044z"/>
					<path class="st5" d="M88.943,350.268H64.199c-1.626,0-2.944-1.318-2.944-2.944l0,0c0-1.626,1.318-2.944,2.944-2.944h24.744
						c1.626,0,2.944,1.318,2.944,2.944l0,0C91.887,348.95,90.569,350.268,88.943,350.268z"/>
					<path class="st13" d="M87.311,347.379c-0.938,0.947-1.858,1.911-2.751,2.888c-3.248,3.551-6.195,7.31-8.839,11.225
						c-0.124,0.182-0.249,0.369-0.369,0.551c-6.803,10.221-11.54,21.445-14.633,33.017c-3.146,11.785-4.635,23.943-4.888,36.083
						c-0.04,1.849-0.049,3.697-0.022,5.546c0.036,3.87,0.195,7.732,0.476,11.58c0.458,6.386,1.235,12.727,2.302,18.97
						c2.413,14.189-7.128,27.649-21.317,30.066c-14.184,2.417-27.644-7.123-30.062-21.312c-0.436-2.555-0.484-5.088-0.187-7.537
						l0.124-0.92c1.889-14.891,5.061-29.471,9.652-43.593c4.595-14.109,10.638-27.769,18.441-40.349
						c4.764-7.692,10.221-14.966,16.317-21.552c3.857-4.168,7.972-8.061,12.331-11.607c0.071-0.058,0.142-0.116,0.213-0.173
						c1.218-0.987,2.453-1.951,3.711-2.884H87.311z"/>
					<line class="st63" x1="144.004" y1="311.533" x2="178.995" y2="311.533"/>
					<line class="st63" x1="93.346" y1="311.533" x2="130.784" y2="311.533"/>
					<line class="st63" x1="78.459" y1="311.533" x2="82.312" y2="311.533"/>
					<line class="st63" x1="31.059" y1="311.533" x2="65.239" y2="311.533"/>
					<line class="st63" x1="106.344" y1="325.457" x2="175.888" y2="325.457"/>
					<line class="st63" x1="61.906" y1="325.457" x2="84.791" y2="325.457"/>
					<line class="st63" x1="4.906" y1="325.457" x2="43.923" y2="325.457"/>
					<line class="st63" x1="92.939" y1="295.206" x2="23.395" y2="295.206"/>
					<line class="st63" x1="137.376" y1="295.206" x2="114.491" y2="295.206"/>
					<line class="st63" x1="130.854" y1="336.714" x2="168.107" y2="336.714"/>
					<line class="st63" x1="31.059" y1="336.714" x2="68.313" y2="336.714"/>
					<line class="st63" x1="114.731" y1="336.714" x2="119.286" y2="336.714"/>
					<line class="st63" x1="90.383" y1="336.714" x2="105.677" y2="336.714"/>
					<line class="st63" x1="142.893" y1="350.268" x2="156.068" y2="350.268"/>
					<line class="st63" x1="107.01" y1="350.268" x2="127.007" y2="350.268"/>
					<line class="st63" x1="23.487" y1="350.268" x2="43.484" y2="350.268"/>
				</g>
			</g>
			<g>
				<path class="st13" d="M21.594,419.174c0.885-3.315,1.259-6.833,0.948-10.444c-0.307-3.606-1.292-7.301-2.979-10.862
					c-1.682-3.562-4.062-6.98-7.02-10.05c-2.955-3.073-6.48-5.795-10.399-8.065l-0.024-0.014c-0.823-0.477-1.104-1.53-0.627-2.353
					c0.367-0.634,1.079-0.945,1.762-0.837c4.741,0.759,9.51,2.143,14.107,4.282c4.593,2.135,9.013,5.033,12.947,8.727
					c3.934,3.686,7.369,8.179,9.961,13.281c2.6,5.096,4.324,10.782,5.1,16.641l0.165,1.244c0.887,6.696-3.823,12.844-10.519,13.73
					c-6.696,0.887-12.843-3.823-13.73-10.519C21.071,422.313,21.203,420.664,21.594,419.174z"/>
			</g>
			<path class="st12" d="M14.835,389.617h-39.107c-7.239,0-13.161-5.923-13.161-13.161v0c0-7.239,5.923-13.161,13.161-13.161h39.107
				c7.239,0,13.161,5.923,13.161,13.161v0C27.997,383.695,22.074,389.617,14.835,389.617z"/>
			<path class="st12" d="M-24.272,384.773c-4.586,0-8.317-3.731-8.317-8.317s3.731-8.317,8.317-8.317h39.107
				c4.586,0,8.317,3.731,8.317,8.317s-3.731,8.317-8.317,8.317H-24.272z"/>
			<line class="st63" x1="2.7" y1="372.874" x2="15.424" y2="372.874"/>
			<line class="st63" x1="-14.174" y1="381.513" x2="13.405" y2="381.513"/>
		</g>
		<g>
			<path class="st64" d="M30.1,777.62c-2.584-2.641-4.379-6.116-4.789-9.812c-0.461-3.671,0.293-7.507,2.219-10.685
				c0.96-1.591,2.114-3.037,3.577-4.246c1.452-1.201,3.166-2.085,4.98-2.588c3.63-1.023,7.667-0.468,10.875,1.525
				c0.804,0.49,1.552,1.071,2.235,1.718c0.697,0.637,1.315,1.396,1.829,2.203c1.019,1.629,1.633,3.517,1.704,5.439
				c0.199,3.849-1.68,7.733-5.053,9.818c-1.687,1.029-3.716,1.437-5.67,1.237c-1.953-0.215-3.848-1.067-5.272-2.427
				c-1.484-1.352-2.398-3.364-2.426-5.388c-0.056-2.026,0.761-4.069,2.206-5.494l0.886-0.874c1.333-1.315,3.479-1.301,4.794,0.032
				c1.315,1.332,1.301,3.479-0.032,4.793c-0.298,0.294-0.649,0.526-1.01,0.687c-0.514,0.228-0.875,1.096-0.304,1.857
				c0.432,0.545,1.048,0.924,1.775,1.105c0.725,0.156,1.541,0.114,2.254-0.228c0.374-0.183,0.678-0.333,1.055-0.722
				c0.384-0.338,0.689-0.745,0.972-1.173c0.528-0.874,0.881-1.91,0.903-2.995c0.058-1.086-0.208-2.186-0.718-3.182
				c-0.271-0.5-0.568-0.955-1-1.407c-0.43-0.469-0.905-0.899-1.427-1.268c-2.07-1.503-4.876-2.12-7.542-1.56
				c-1.33,0.274-2.62,0.828-3.752,1.648c-1.12,0.799-2.179,1.96-3.006,3.171c-1.707,2.453-2.529,5.563-2.324,8.662
				c0.158,3.12,1.504,6.16,3.62,8.595l0.058,0.067c0.399,0.459,0.35,1.154-0.109,1.553C31.168,778.064,30.505,778.031,30.1,777.62z"
				/>
		</g>
		<g>
			<path class="st16" d="M319.091,679.847c-2.584-2.641-4.379-6.116-4.789-9.812c-0.461-3.671,0.293-7.507,2.219-10.684
				c0.96-1.592,2.114-3.038,3.577-4.246c1.452-1.201,3.166-2.085,4.981-2.588c3.63-1.023,7.667-0.468,10.875,1.525
				c0.804,0.49,1.552,1.072,2.235,1.718c0.697,0.637,1.315,1.396,1.829,2.203c1.019,1.63,1.633,3.517,1.704,5.439
				c0.2,3.849-1.68,7.734-5.053,9.818c-1.687,1.029-3.717,1.437-5.67,1.237c-1.953-0.215-3.848-1.067-5.272-2.427
				c-1.484-1.352-2.398-3.364-2.426-5.388c-0.056-2.026,0.761-4.069,2.206-5.495l0.886-0.874c1.332-1.315,3.479-1.301,4.793,0.032
				s1.301,3.479-0.032,4.793c-0.298,0.294-0.649,0.526-1.01,0.687c-0.514,0.228-0.875,1.096-0.304,1.857
				c0.432,0.545,1.048,0.924,1.775,1.105c0.725,0.156,1.541,0.113,2.254-0.228c0.374-0.184,0.678-0.333,1.055-0.722
				c0.384-0.338,0.688-0.745,0.972-1.173c0.528-0.874,0.881-1.91,0.903-2.995c0.058-1.086-0.208-2.186-0.718-3.182
				c-0.271-0.5-0.568-0.955-1-1.407c-0.43-0.469-0.905-0.899-1.427-1.268c-2.07-1.503-4.876-2.12-7.542-1.56
				c-1.33,0.274-2.62,0.828-3.752,1.648c-1.12,0.799-2.179,1.96-3.006,3.171c-1.707,2.453-2.529,5.563-2.324,8.662
				c0.158,3.12,1.504,6.16,3.62,8.595l0.058,0.067c0.399,0.459,0.35,1.154-0.109,1.553
				C320.158,680.291,319.495,680.258,319.091,679.847z"/>
		</g>
		<g>
			<path class="st16" d="M112.231,772.217c3.375-1.504,7.258-1.978,10.865-1.077c3.602,0.845,6.936,2.886,9.245,5.798
				c1.158,1.454,2.112,3.039,2.737,4.83c0.621,1.779,0.853,3.694,0.694,5.57c-0.304,3.759-2.229,7.351-5.213,9.665
				c-0.739,0.583-1.544,1.082-2.388,1.498c-0.84,0.432-1.766,0.747-2.702,0.948c-1.882,0.388-3.866,0.308-5.692-0.295
				c-3.678-1.152-6.666-4.265-7.447-8.153c-0.378-1.939-0.054-3.984,0.813-5.746c0.881-1.756,2.339-3.236,4.109-4.098
				c1.784-0.921,3.988-1.078,5.896-0.4c1.919,0.653,3.55,2.129,4.384,3.98l0.511,1.135c0.769,1.707,0.01,3.714-1.697,4.483
				s-3.714,0.01-4.483-1.697c-0.172-0.382-0.267-0.791-0.293-1.186c-0.034-0.561-0.724-1.202-1.635-0.931
				c-0.661,0.216-1.231,0.661-1.653,1.28c-0.399,0.625-0.642,1.405-0.571,2.193c0.042,0.414,0.076,0.751,0.309,1.24
				c0.183,0.478,0.459,0.905,0.761,1.32c0.635,0.799,1.484,1.491,2.494,1.888c0.998,0.432,2.122,0.566,3.233,0.434
				c0.563-0.08,1.093-0.2,1.667-0.448c0.589-0.24,1.157-0.536,1.685-0.897c2.129-1.418,3.684-3.834,4.086-6.528
				c0.206-1.343,0.135-2.744-0.24-4.091c-0.359-1.328-1.08-2.725-1.927-3.922c-1.706-2.453-4.336-4.306-7.313-5.192
				c-2.98-0.937-6.298-0.733-9.318,0.405l-0.083,0.031c-0.569,0.214-1.204-0.073-1.418-0.642
				C111.443,773.063,111.704,772.453,112.231,772.217z"/>
		</g>
		<g>
			<path class="st16" d="M143.388,680.484c3.375-1.504,7.258-1.978,10.865-1.077c3.602,0.845,6.936,2.887,9.245,5.798
				c1.158,1.454,2.112,3.039,2.737,4.83c0.621,1.779,0.853,3.694,0.694,5.57c-0.304,3.759-2.229,7.35-5.213,9.665
				c-0.739,0.583-1.544,1.082-2.388,1.498c-0.84,0.432-1.766,0.747-2.702,0.948c-1.882,0.388-3.866,0.308-5.692-0.295
				c-3.678-1.152-6.666-4.266-7.447-8.153c-0.378-1.939-0.054-3.984,0.813-5.746c0.881-1.756,2.339-3.236,4.109-4.098
				c1.784-0.921,3.988-1.078,5.896-0.4c1.919,0.653,3.55,2.129,4.384,3.98l0.512,1.135c0.769,1.707,0.009,3.714-1.697,4.483
				s-3.714,0.01-4.483-1.697c-0.172-0.382-0.267-0.791-0.293-1.186c-0.034-0.561-0.724-1.202-1.635-0.931
				c-0.661,0.216-1.231,0.661-1.653,1.28c-0.399,0.625-0.642,1.405-0.571,2.193c0.042,0.414,0.076,0.751,0.309,1.24
				c0.183,0.478,0.459,0.905,0.761,1.32c0.635,0.799,1.484,1.491,2.494,1.888c0.998,0.432,2.122,0.566,3.233,0.434
				c0.563-0.08,1.093-0.2,1.667-0.448c0.589-0.24,1.157-0.536,1.685-0.897c2.129-1.418,3.684-3.834,4.086-6.528
				c0.206-1.343,0.135-2.744-0.24-4.091c-0.359-1.328-1.08-2.725-1.927-3.922c-1.706-2.453-4.336-4.306-7.313-5.192
				c-2.98-0.937-6.298-0.733-9.317,0.405l-0.083,0.031c-0.569,0.214-1.204-0.073-1.418-0.642
				C142.6,681.33,142.861,680.72,143.388,680.484z"/>
		</g>
		<g>
			<path class="st16" d="M31.797,564.041c-0.24-3.687,0.664-7.493,2.76-10.564c2.043-3.085,5.114-5.504,8.645-6.659
				c1.765-0.582,3.583-0.927,5.48-0.891c1.884,0.035,3.76,0.481,5.464,1.282c3.42,1.589,6.12,4.641,7.256,8.242
				c0.291,0.896,0.479,1.824,0.576,2.759c0.114,0.938,0.088,1.916-0.048,2.864c-0.289,1.9-1.053,3.732-2.251,5.236
				c-2.357,3.05-6.314,4.772-10.231,4.155c-1.95-0.318-3.755-1.332-5.107-2.756c-1.342-1.436-2.223-3.317-2.418-5.276
				c-0.245-1.993,0.373-4.114,1.671-5.668c1.278-1.573,3.228-2.59,5.253-2.731l1.242-0.086c1.868-0.129,3.486,1.28,3.616,3.147
				c0.129,1.867-1.28,3.486-3.147,3.616c-0.418,0.029-0.835-0.024-1.214-0.137c-0.538-0.162-1.378,0.261-1.44,1.211
				c-0.027,0.695,0.193,1.384,0.626,1.995c0.448,0.591,1.095,1.09,1.858,1.296c0.403,0.104,0.731,0.189,1.271,0.14
				c0.512-0.006,1.008-0.116,1.502-0.256c0.97-0.318,1.913-0.874,2.636-1.683c0.751-0.786,1.267-1.794,1.529-2.882
				c0.12-0.556,0.192-1.095,0.158-1.719c-0.02-0.636-0.101-1.271-0.256-1.892c-0.591-2.489-2.318-4.785-4.705-6.098
				c-1.188-0.658-2.527-1.079-3.92-1.195c-1.37-0.124-2.931,0.067-4.347,0.446c-2.893,0.749-5.543,2.572-7.407,5.057
				c-1.913,2.469-2.873,5.653-2.854,8.879l0,0.089c0.004,0.608-0.486,1.104-1.094,1.107
				C32.317,565.073,31.836,564.617,31.797,564.041z"/>
		</g>
		<g>
			<path class="st64" d="M308.386,734.352c-0.24-3.687,0.663-7.493,2.76-10.564c2.042-3.085,5.114-5.504,8.645-6.659
				c1.765-0.582,3.583-0.927,5.48-0.891c1.884,0.035,3.76,0.481,5.464,1.282c3.42,1.589,6.12,4.641,7.256,8.243
				c0.291,0.896,0.479,1.824,0.576,2.759c0.114,0.938,0.088,1.916-0.048,2.864c-0.289,1.9-1.053,3.732-2.252,5.236
				c-2.357,3.05-6.314,4.772-10.231,4.155c-1.95-0.319-3.755-1.332-5.107-2.756c-1.342-1.436-2.223-3.317-2.418-5.276
				c-0.245-1.993,0.373-4.114,1.671-5.668c1.278-1.573,3.229-2.59,5.254-2.73l1.242-0.086c1.868-0.129,3.486,1.28,3.616,3.147
				c0.129,1.867-1.28,3.486-3.147,3.615c-0.418,0.029-0.835-0.024-1.214-0.136c-0.538-0.163-1.378,0.261-1.44,1.211
				c-0.027,0.695,0.193,1.384,0.626,1.995c0.448,0.591,1.095,1.09,1.858,1.296c0.403,0.104,0.731,0.189,1.271,0.14
				c0.512-0.006,1.008-0.116,1.502-0.256c0.97-0.318,1.913-0.875,2.636-1.684c0.751-0.786,1.267-1.794,1.529-2.882
				c0.12-0.556,0.192-1.095,0.158-1.719c-0.02-0.636-0.101-1.271-0.256-1.892c-0.591-2.489-2.318-4.785-4.705-6.097
				c-1.188-0.659-2.527-1.079-3.92-1.195c-1.37-0.124-2.931,0.067-4.347,0.446c-2.893,0.749-5.543,2.572-7.407,5.057
				c-1.913,2.469-2.873,5.653-2.854,8.879l0,0.089c0.004,0.608-0.486,1.104-1.094,1.107
				C308.906,735.385,308.425,734.928,308.386,734.352z"/>
		</g>
		<g>
			<path class="st64" d="M152.583,579.493c3.124,1.973,5.673,4.94,6.925,8.442c1.296,3.466,1.448,7.372,0.307,10.908
				c-0.567,1.77-1.356,3.443-2.5,4.957c-1.136,1.504-2.599,2.76-4.249,3.668c-3.295,1.833-7.352,2.225-10.933,1.027
				c-0.896-0.291-1.757-0.684-2.571-1.156c-0.825-0.459-1.602-1.055-2.289-1.722c-1.367-1.35-2.401-3.045-2.913-4.899
				c-1.083-3.699-0.15-7.913,2.651-10.72c1.404-1.391,3.285-2.256,5.231-2.512c1.95-0.241,3.99,0.151,5.69,1.145
				c1.757,0.973,3.109,2.719,3.604,4.683c0.522,1.958,0.198,4.134-0.878,5.855l-0.66,1.055c-0.993,1.587-3.084,2.068-4.671,1.075
				c-1.587-0.993-2.069-3.084-1.076-4.671c0.222-0.355,0.51-0.661,0.824-0.902c0.448-0.34,0.598-1.269-0.133-1.877
				c-0.546-0.43-1.233-0.657-1.982-0.666c-0.741,0.015-1.526,0.245-2.141,0.742c-0.322,0.265-0.583,0.48-0.86,0.946
				c-0.296,0.417-0.498,0.884-0.675,1.365c-0.312,0.972-0.417,2.062-0.187,3.122c0.194,1.07,0.707,2.079,1.433,2.931
				c0.379,0.424,0.773,0.798,1.298,1.138c0.526,0.357,1.088,0.665,1.681,0.904c2.361,0.985,5.234,0.937,7.698-0.223
				c1.231-0.574,2.358-1.41,3.271-2.47c0.906-1.036,1.668-2.41,2.193-3.779c1.094-2.781,1.176-5.996,0.262-8.965
				c-0.874-2.999-2.885-5.646-5.507-7.527l-0.072-0.052c-0.494-0.354-0.607-1.042-0.253-1.536
				C151.442,579.307,152.095,579.186,152.583,579.493z"/>
		</g>
		<g>
			<path class="st64" d="M332.823,483.912c3.124,1.973,5.673,4.94,6.925,8.442c1.296,3.466,1.448,7.372,0.307,10.908
				c-0.567,1.77-1.356,3.443-2.5,4.957c-1.136,1.504-2.599,2.76-4.249,3.668c-3.295,1.833-7.352,2.225-10.933,1.027
				c-0.896-0.291-1.757-0.684-2.571-1.155c-0.825-0.459-1.602-1.055-2.289-1.722c-1.367-1.35-2.401-3.045-2.913-4.899
				c-1.083-3.699-0.15-7.913,2.651-10.72c1.404-1.391,3.285-2.256,5.231-2.512c1.95-0.241,3.99,0.15,5.69,1.145
				c1.756,0.973,3.109,2.719,3.604,4.683c0.522,1.958,0.198,4.134-0.878,5.855l-0.66,1.055c-0.993,1.587-3.084,2.069-4.671,1.076
				s-2.069-3.084-1.076-4.671c0.222-0.355,0.51-0.661,0.824-0.902c0.448-0.34,0.599-1.269-0.133-1.877
				c-0.546-0.43-1.233-0.657-1.982-0.666c-0.741,0.015-1.526,0.245-2.141,0.742c-0.322,0.265-0.583,0.48-0.86,0.946
				c-0.296,0.417-0.498,0.884-0.675,1.365c-0.312,0.972-0.417,2.062-0.187,3.122c0.194,1.07,0.707,2.079,1.433,2.931
				c0.379,0.424,0.773,0.798,1.298,1.138c0.526,0.357,1.088,0.666,1.681,0.905c2.361,0.985,5.234,0.937,7.698-0.223
				c1.231-0.574,2.358-1.41,3.271-2.47c0.905-1.036,1.668-2.411,2.193-3.779c1.094-2.781,1.176-5.996,0.262-8.965
				c-0.874-2.999-2.885-5.646-5.507-7.527l-0.072-0.052c-0.494-0.354-0.607-1.042-0.253-1.536
				C331.682,483.726,332.335,483.605,332.823,483.912z"/>
		</g>
		<g>
			<path class="st64" d="M353.616,579.493c3.124,1.973,5.673,4.94,6.925,8.442c1.296,3.466,1.448,7.372,0.307,10.908
				c-0.567,1.77-1.356,3.443-2.5,4.957c-1.136,1.504-2.599,2.76-4.249,3.668c-3.295,1.833-7.352,2.225-10.933,1.027
				c-0.896-0.291-1.757-0.684-2.571-1.156c-0.825-0.459-1.602-1.055-2.289-1.722c-1.367-1.35-2.401-3.045-2.913-4.899
				c-1.083-3.699-0.15-7.913,2.651-10.72c1.404-1.391,3.285-2.256,5.231-2.512c1.95-0.241,3.99,0.151,5.69,1.145
				c1.757,0.973,3.109,2.719,3.604,4.683c0.522,1.958,0.198,4.134-0.878,5.855l-0.66,1.055c-0.993,1.587-3.084,2.068-4.671,1.075
				c-1.587-0.993-2.069-3.084-1.076-4.671c0.222-0.355,0.51-0.661,0.824-0.902c0.448-0.34,0.598-1.269-0.133-1.877
				c-0.546-0.43-1.233-0.657-1.982-0.666c-0.741,0.015-1.526,0.245-2.141,0.742c-0.322,0.265-0.583,0.48-0.86,0.946
				c-0.296,0.417-0.498,0.884-0.675,1.365c-0.312,0.972-0.417,2.062-0.187,3.122c0.194,1.07,0.707,2.079,1.433,2.931
				c0.379,0.424,0.773,0.798,1.298,1.138c0.526,0.357,1.088,0.665,1.681,0.904c2.361,0.985,5.234,0.937,7.698-0.223
				c1.231-0.574,2.358-1.41,3.271-2.47c0.906-1.036,1.668-2.41,2.193-3.779c1.094-2.781,1.176-5.996,0.262-8.965
				c-0.874-2.999-2.885-5.646-5.507-7.527l-0.072-0.052c-0.494-0.354-0.607-1.042-0.253-1.536
				C352.475,579.307,353.127,579.186,353.616,579.493z"/>
		</g>
		<g>
			<path class="st65" d="M23.603,630.589c1.09-3.53,3.29-6.765,6.344-8.887c3.008-2.155,6.74-3.32,10.451-3.141
				c1.857,0.085,3.678,0.411,5.438,1.121c1.748,0.704,3.342,1.79,4.649,3.145c2.629,2.703,4.065,6.517,3.842,10.287
				c-0.047,0.94-0.202,1.875-0.445,2.783c-0.228,0.917-0.601,1.821-1.065,2.658c-0.947,1.672-2.314,3.112-3.969,4.09
				c-3.289,2.01-7.6,2.208-11.04,0.237c-1.708-0.992-3.034-2.583-3.789-4.395c-0.742-1.82-0.895-3.891-0.379-5.791
				c0.481-1.95,1.815-3.711,3.581-4.701c1.755-1.015,3.94-1.27,5.882-0.679l1.191,0.362c1.791,0.545,2.801,2.438,2.257,4.229
				s-2.438,2.801-4.229,2.257c-0.401-0.122-0.772-0.32-1.085-0.56c-0.445-0.344-1.381-0.247-1.777,0.618
				c-0.273,0.64-0.313,1.362-0.126,2.087c0.208,0.712,0.635,1.409,1.274,1.873c0.339,0.241,0.616,0.437,1.137,0.584
				c0.48,0.177,0.983,0.25,1.495,0.296c1.02,0.048,2.099-0.135,3.063-0.634c0.982-0.467,1.823-1.225,2.456-2.148
				c0.311-0.476,0.569-0.955,0.76-1.55c0.208-0.601,0.359-1.224,0.435-1.859c0.335-2.536-0.46-5.297-2.223-7.374
				c-0.875-1.039-1.976-1.908-3.237-2.513c-1.236-0.604-2.762-0.982-4.22-1.132c-2.97-0.331-6.095,0.428-8.723,2.085
				c-2.667,1.626-4.698,4.258-5.83,7.279l-0.031,0.083c-0.213,0.569-0.848,0.858-1.417,0.645
				C23.721,631.739,23.434,631.141,23.603,630.589z"/>
		</g>
		<g>
			<path class="st65" d="M153.807,504.329c1.09-3.53,3.29-6.765,6.344-8.887c3.008-2.155,6.74-3.32,10.451-3.141
				c1.857,0.085,3.678,0.411,5.438,1.121c1.748,0.704,3.342,1.79,4.649,3.145c2.629,2.703,4.065,6.517,3.842,10.287
				c-0.047,0.94-0.202,1.875-0.445,2.783c-0.228,0.917-0.601,1.821-1.065,2.658c-0.947,1.672-2.314,3.112-3.969,4.09
				c-3.289,2.01-7.599,2.208-11.04,0.237c-1.709-0.992-3.034-2.583-3.789-4.395c-0.742-1.82-0.895-3.891-0.379-5.791
				c0.481-1.95,1.815-3.711,3.581-4.701c1.755-1.015,3.94-1.27,5.882-0.679l1.191,0.362c1.791,0.545,2.801,2.438,2.257,4.229
				s-2.438,2.801-4.229,2.257c-0.401-0.122-0.771-0.32-1.085-0.56c-0.445-0.344-1.381-0.247-1.777,0.618
				c-0.273,0.64-0.313,1.362-0.126,2.087c0.208,0.712,0.635,1.409,1.274,1.873c0.339,0.241,0.616,0.437,1.137,0.584
				c0.48,0.177,0.983,0.25,1.495,0.296c1.02,0.048,2.099-0.135,3.063-0.634c0.982-0.467,1.823-1.225,2.455-2.148
				c0.311-0.476,0.569-0.955,0.76-1.55c0.208-0.601,0.359-1.224,0.435-1.859c0.335-2.536-0.46-5.297-2.223-7.374
				c-0.875-1.039-1.976-1.908-3.237-2.513c-1.236-0.604-2.762-0.982-4.22-1.132c-2.97-0.331-6.095,0.428-8.723,2.085
				c-2.667,1.626-4.698,4.258-5.83,7.279l-0.031,0.083c-0.213,0.569-0.848,0.858-1.417,0.645
				C153.925,505.48,153.638,504.881,153.807,504.329z"/>
		</g>
		<g>
			<path class="st65" d="M226.698,613.791c1.09-3.53,3.29-6.765,6.344-8.887c3.008-2.155,6.74-3.32,10.451-3.141
				c1.857,0.085,3.678,0.411,5.438,1.121c1.748,0.704,3.342,1.79,4.649,3.145c2.629,2.703,4.065,6.517,3.842,10.287
				c-0.047,0.94-0.202,1.875-0.445,2.783c-0.228,0.917-0.601,1.821-1.065,2.658c-0.947,1.672-2.314,3.112-3.97,4.09
				c-3.289,2.01-7.599,2.209-11.04,0.237c-1.709-0.992-3.034-2.583-3.789-4.395c-0.742-1.82-0.895-3.891-0.379-5.792
				c0.481-1.949,1.815-3.711,3.581-4.701c1.755-1.014,3.94-1.27,5.882-0.679l1.191,0.362c1.791,0.545,2.801,2.438,2.257,4.229
				c-0.545,1.791-2.438,2.801-4.229,2.257c-0.401-0.122-0.772-0.32-1.085-0.56c-0.445-0.344-1.381-0.247-1.777,0.618
				c-0.273,0.639-0.313,1.362-0.126,2.087c0.208,0.712,0.635,1.409,1.274,1.873c0.339,0.241,0.616,0.437,1.137,0.584
				c0.48,0.177,0.983,0.25,1.495,0.296c1.02,0.048,2.099-0.135,3.063-0.634c0.982-0.467,1.823-1.225,2.456-2.148
				c0.311-0.476,0.569-0.955,0.76-1.55c0.207-0.601,0.359-1.224,0.435-1.859c0.335-2.536-0.46-5.297-2.223-7.374
				c-0.875-1.039-1.976-1.908-3.237-2.513c-1.236-0.604-2.762-0.982-4.22-1.132c-2.97-0.331-6.095,0.428-8.723,2.085
				c-2.667,1.626-4.698,4.258-5.831,7.279l-0.031,0.083c-0.213,0.569-0.848,0.858-1.417,0.645
				C226.816,614.941,226.529,614.342,226.698,613.791z"/>
		</g>
		<g>
			<path class="st65" d="M206.603,755.691c1.09-3.53,3.29-6.765,6.344-8.887c3.008-2.155,6.74-3.32,10.451-3.141
				c1.857,0.085,3.678,0.411,5.438,1.121c1.748,0.704,3.342,1.79,4.649,3.145c2.629,2.703,4.065,6.517,3.842,10.287
				c-0.047,0.94-0.202,1.875-0.445,2.783c-0.228,0.917-0.601,1.821-1.065,2.658c-0.947,1.672-2.314,3.112-3.969,4.09
				c-3.289,2.01-7.599,2.209-11.04,0.237c-1.709-0.992-3.034-2.583-3.789-4.395c-0.742-1.82-0.895-3.891-0.379-5.792
				c0.481-1.949,1.815-3.711,3.581-4.701c1.755-1.014,3.94-1.27,5.882-0.679l1.191,0.362c1.791,0.545,2.801,2.438,2.257,4.229
				c-0.545,1.791-2.438,2.801-4.229,2.257c-0.401-0.122-0.771-0.32-1.085-0.56c-0.445-0.344-1.381-0.247-1.777,0.618
				c-0.273,0.639-0.313,1.362-0.125,2.087c0.208,0.712,0.635,1.409,1.274,1.873c0.339,0.241,0.616,0.437,1.137,0.584
				c0.48,0.177,0.983,0.25,1.495,0.296c1.02,0.048,2.099-0.135,3.063-0.634c0.982-0.467,1.823-1.225,2.455-2.148
				c0.311-0.476,0.569-0.955,0.76-1.55c0.208-0.601,0.359-1.224,0.435-1.859c0.335-2.536-0.46-5.297-2.223-7.374
				c-0.875-1.039-1.976-1.908-3.237-2.513c-1.236-0.604-2.762-0.982-4.22-1.132c-2.97-0.331-6.095,0.428-8.723,2.085
				c-2.667,1.626-4.698,4.258-5.83,7.279l-0.031,0.083c-0.213,0.569-0.848,0.858-1.417,0.645
				C206.721,756.841,206.434,756.243,206.603,755.691z"/>
		</g>
		<g>
			<path class="st16" d="M6.14,694.97c3.142-1.943,6.927-2.934,10.623-2.525c3.683,0.354,7.261,1.93,9.939,4.505
				c1.343,1.285,2.501,2.728,3.36,4.42c0.854,1.68,1.341,3.546,1.435,5.426c0.203,3.765-1.222,7.583-3.869,10.277
				c-0.654,0.677-1.385,1.28-2.165,1.804c-0.774,0.541-1.65,0.977-2.551,1.302c-1.813,0.637-3.79,0.823-5.68,0.471
				c-3.799-0.648-7.178-3.333-8.474-7.08c-0.635-1.871-0.588-3.941,0.035-5.803c0.638-1.859,1.884-3.521,3.522-4.613
				c1.644-1.153,3.807-1.603,5.789-1.187c1.989,0.389,3.803,1.634,4.878,3.355l0.659,1.056c0.991,1.588,0.508,3.679-1.08,4.67
				c-1.588,0.991-3.679,0.508-4.67-1.08c-0.222-0.355-0.371-0.748-0.45-1.136c-0.109-0.552-0.878-1.094-1.745-0.703
				c-0.626,0.302-1.131,0.82-1.467,1.49c-0.311,0.673-0.448,1.479-0.271,2.249c0.097,0.405,0.177,0.735,0.473,1.188
				c0.246,0.449,0.576,0.835,0.931,1.206c0.737,0.707,1.671,1.278,2.724,1.537c1.047,0.294,2.179,0.276,3.262-0.004
				c0.547-0.155,1.057-0.345,1.592-0.667c0.552-0.316,1.075-0.686,1.55-1.115c1.92-1.691,3.136-4.293,3.173-7.017
				c0.024-1.358-0.234-2.738-0.787-4.022c-0.534-1.268-1.436-2.556-2.435-3.628c-2.02-2.202-4.874-3.685-7.943-4.164
				c-3.078-0.529-6.34,0.119-9.179,1.651l-0.078,0.042c-0.535,0.289-1.203,0.089-1.491-0.446
				C5.472,695.914,5.65,695.274,6.14,694.97z"/>
		</g>
	</g>
</g>
<g id="Layer_2">
</g>
</svg>
