<?xml version="1.0" encoding="utf-8"?>
<!-- Generator: Adobe Illustrator 22.0.1, SVG Export Plug-In . SVG Version: 6.00 Build 0)  -->
<svg version="1.1" id="Layer_1" xmlns="http://www.w3.org/2000/svg" xmlns:xlink="http://www.w3.org/1999/xlink" x="0px" y="0px"
	 viewBox="0 0 24 24" style="enable-background:new 0 0 24 24;" xml:space="preserve">
<style type="text/css">
	.st0{fill:#1C1C1C;}
	.st1{fill:#FFFFFF;}
</style>
<path class="st1" d="M20.4,4.777H3.6c-0.88,0-1.6,0.712-1.6,1.6v10.4c0,0.88,0.72,1.6,1.6,1.6h10.256l2.712,2.704
	c0.304,0.304,0.824,0.088,0.824-0.336v-2.368H20.4c0.88,0,1.6-0.72,1.6-1.6v-10.4C22,5.489,21.28,4.777,20.4,4.777z M12,15.177H4.8
	v-0.8H12V15.177z M15.6,11.977H4.8v-0.8h10.8V11.977z M19.2,8.777H4.8v-0.8h14.4V8.777z"/>
</svg>
