<?xml version="1.0" encoding="utf-8"?>
<!-- Generator: Adobe Illustrator 22.0.1, SVG Export Plug-In . SVG Version: 6.00 Build 0)  -->
<svg version="1.1" xmlns="http://www.w3.org/2000/svg" xmlns:xlink="http://www.w3.org/1999/xlink" x="0px" y="0px"
	 viewBox="0 0 32 32" style="enable-background:new 0 0 32 32;" xml:space="preserve">
<style type="text/css">
	.st0{opacity:0.2;}
	.st1{fill:#80DEE5;}
	.st2{fill:#8BD859;}
	.st3{opacity:0.15;fill:#011627;}
	.st4{fill:#513715;}
	.st5{opacity:0.25;fill:#011627;}
	.st6{fill:#D3954A;}
	.st7{fill:#011627;}
	.st8{opacity:0.5;}
	.st9{fill:#FFFFFF;}
	.st10{opacity:0.5;fill:#FFFFFF;}
	.st11{opacity:0.5;fill:#011627;}
	.st12{fill:#63C132;}
	.st13{fill:#8E5B12;}
	.st14{opacity:0.25;fill:none;stroke:#011627;stroke-width:7;stroke-linecap:round;stroke-miterlimit:10;}
	.st15{fill:#FFBB1E;}
	.st16{fill:#FFE226;}
	.st17{fill:#FFF244;}
	.st18{fill:#F6511D;}
	.st19{fill:#011627;stroke:#011627;stroke-width:3.5264;stroke-miterlimit:10;}
	.st20{fill:#8FD5A6;}
	.st21{fill:#48BF84;}
	.st22{fill:#329F5B;}
	.st23{fill:#F9CC2A;}
	.st24{opacity:0.25;fill:#8FD5A6;}
	.st25{fill:#9AD1D4;}
	.st26{fill:#5DB7DE;}
	.st27{fill:#2176FF;}
	.st28{fill:#1B4965;}
	.st29{fill:#FFA9E7;}
	.st30{opacity:0.25;}
	.st31{fill:#AA762B;}
	.st32{fill:#966524;}
	.st33{fill:#E2E2E2;}
	.st34{fill:#143B56;}
	.st35{fill:#6CA4F4;}
	.st36{opacity:0.15;}
	.st37{fill:none;stroke:#FFFFFF;stroke-width:90;stroke-linecap:round;stroke-miterlimit:10;}
	.st38{opacity:0.5;fill:none;stroke:#FFFFFF;stroke-width:3;stroke-linecap:round;stroke-miterlimit:10;}
	.st39{fill:#71C13D;}
	.st40{fill:none;stroke:#8E5B12;stroke-width:10;stroke-linecap:round;stroke-miterlimit:10;}
	.st41{fill:#A4C9F7;}
	.st42{fill:#FFFFFF;stroke:#E8E8E8;stroke-width:10;stroke-miterlimit:10;}
	.st43{fill:#E8E8E8;}
	.st44{fill:#A4C9F7;stroke:#7AA2CE;stroke-width:4;stroke-linecap:round;stroke-linejoin:round;stroke-miterlimit:10;}
	.st45{fill:#CAE5FF;}
	.st46{fill:#CCCCCC;}
	.st47{opacity:0.25;fill:none;stroke:#011627;stroke-width:4.8829;stroke-linecap:round;stroke-miterlimit:10;}
	.st48{fill:#2D2D2D;}
	.st49{fill:#011627;stroke:#011627;stroke-width:8.2967;stroke-miterlimit:10;}
	.st50{fill:#AAAAAA;}
	.st51{fill:#C4C4C4;}
	.st52{fill:#4990C4;}
	.st53{fill:#6EAFEA;}
	.st54{fill:#F4C647;}
	.st55{fill:#F8C815;}
	.st56{fill:#345994;}
	.st57{fill:#3F4040;}
	.st58{fill:none;stroke:#FFFFFF;stroke-width:2;stroke-linecap:round;stroke-linejoin:round;stroke-miterlimit:10;}
	.st59{display:none;fill:#FFFFFF;}
	.st60{fill:#C6C6C6;}
	.st61{fill:#F7F7F7;}
	.st62{fill:#011627;stroke:#011627;stroke-width:5.4418;stroke-miterlimit:10;}
	.st63{fill:#FFCA0C;}
	.st64{fill:none;stroke:#FFFFFF;stroke-width:4;stroke-linecap:round;stroke-linejoin:round;stroke-miterlimit:10;}
	.st65{fill:none;stroke:#E5E5E5;stroke-width:15;stroke-linecap:round;stroke-miterlimit:10;}
	.st66{fill:none;stroke:#FFE226;stroke-width:15;stroke-linecap:round;stroke-miterlimit:10;}
	.st67{opacity:0.45;}
	.st68{fill:#B5B5B5;}
	.st69{fill:none;stroke:#B5B5B5;stroke-width:9;stroke-miterlimit:10;}
	.st70{opacity:0.75;}
	.st71{fill:none;stroke:#FFFFFF;stroke-width:4;stroke-linecap:round;stroke-miterlimit:10;}
	.st72{fill:#DBDBDB;}
	.st73{opacity:0.3;}
	.st74{fill:none;stroke:#353535;stroke-width:4;stroke-linecap:round;stroke-linejoin:round;stroke-miterlimit:10;}
	.st75{fill:none;stroke:#E5E5E5;stroke-width:4;stroke-linecap:round;stroke-linejoin:round;stroke-miterlimit:10;}
	.st76{opacity:0.8;}
	.st77{fill:url(#SVGID_1_);}
	.st78{fill:#F06728;}
	.st79{fill:#F6C718;}
	.st80{fill:#212120;}
	.st81{fill:none;stroke:#000000;stroke-miterlimit:10;}
	.st82{fill:none;stroke:#DDDDDD;stroke-linecap:round;stroke-linejoin:round;}
	.st83{fill:none;stroke:#DDDDDD;stroke-linecap:round;stroke-linejoin:round;stroke-dasharray:5.007,10.014;}
	.st84{fill:none;stroke:#DDDDDD;stroke-linecap:round;stroke-linejoin:round;stroke-dasharray:5.1976,10.3952;}
	.st85{fill:none;stroke:#DDDDDD;stroke-linecap:round;stroke-linejoin:round;stroke-dasharray:5.0075,10.0151;}
	.st86{fill:none;stroke:#DDDDDD;stroke-linecap:round;stroke-linejoin:round;stroke-dasharray:5.0907,10.1814;}
	.st87{fill:none;stroke:#E5E5E5;stroke-width:7;stroke-linecap:round;stroke-miterlimit:10;}
	.st88{fill:none;stroke:#FFE226;stroke-width:7;stroke-linecap:round;stroke-miterlimit:10;}
	.st89{fill:#011627;stroke:#011627;stroke-width:7.7079;stroke-miterlimit:10;}
	.st90{fill:#FFFF4C;}
	.st91{fill:#FFA400;}
	.st92{fill:none;stroke:#BCBCBC;stroke-width:2;stroke-linecap:round;stroke-miterlimit:10;}
	.st93{fill:#BCBCBC;}
	.st94{fill:#3B5998;}
	.st95{fill:none;stroke:#F8C815;stroke-width:5.5603;stroke-linecap:round;stroke-miterlimit:10;}
	.st96{fill:#011627;stroke:#011627;stroke-width:1.9321;stroke-miterlimit:10;}
	.st97{fill:#011627;stroke:#011627;stroke-width:7.8142;stroke-miterlimit:10;}
	.st98{opacity:0.12;fill:#FFFFFF;}
	.st99{opacity:0.13;fill:#FFFFFF;}
	.st100{opacity:0.14;fill:#FFFFFF;}
	.st101{opacity:0.15;fill:#FFFFFF;}
	.st102{opacity:0.16;fill:#FFFFFF;}
	.st103{opacity:0.17;fill:#FFFFFF;}
	.st104{fill:#53AD3D;}
	.st105{opacity:0.25;fill:none;stroke:#000000;stroke-width:5;stroke-linecap:round;stroke-miterlimit:10;}
	.st106{fill:#EDD983;}
	.st107{clip-path:url(#SVGID_4_);}
	.st108{opacity:0.1;fill:#FFFFFF;}
	.st109{opacity:0.18;fill:#FFFFFF;}
	.st110{opacity:0.2;fill:#FFFFFF;}
	.st111{clip-path:url(#SVGID_5_);}
</style>
<g id="Layer_1">
	<g>
		<path class="st9" d="M14.379,9.722c0.189,0.185,0.415,0.334,0.675,0.446c0.261,0.112,0.55,0.168,0.865,0.168
			c0.305,0,0.596-0.056,0.87-0.168c0.274-0.112,0.517-0.27,0.73-0.473c0.21-0.203,0.38-0.442,0.506-0.722
			c0.125-0.28,0.189-0.581,0.189-0.905c0-0.27-0.048-0.527-0.147-0.77c-0.098-0.243-0.239-0.459-0.425-0.648
			c-0.185-0.189-0.405-0.34-0.662-0.452c-0.257-0.112-0.546-0.168-0.87-0.168c-0.307,0-0.598,0.06-0.878,0.176
			c-0.28,0.116-0.527,0.276-0.743,0.479c-0.216,0.203-0.388,0.442-0.513,0.716c-0.125,0.274-0.189,0.573-0.189,0.897
			c0,0.27,0.05,0.529,0.154,0.776C14.043,9.321,14.19,9.537,14.379,9.722z"/>
		<path class="st9" d="M18.247,23.392c-0.504,0-0.841-0.172-1.013-0.519c-0.172-0.347-0.176-0.948-0.014-1.802l0.89-4.429
			c0.342-1.737,0.212-3.007-0.392-3.808c-0.602-0.801-1.669-1.202-3.2-1.202c-0.701,0-1.386,0.098-2.051,0.297
			c-0.666,0.199-1.291,0.459-1.876,0.783v2.524c0.648-0.315,1.231-0.564,1.749-0.749c0.517-0.183,0.982-0.276,1.397-0.276
			c0.494,0,0.832,0.174,1.015,0.519c0.18,0.347,0.185,0.948,0.013,1.803l-0.878,4.429c-0.351,1.745-0.226,3.016,0.378,3.814
			c0.602,0.797,1.673,1.195,3.213,1.195c0.693,0,1.376-0.1,2.046-0.303c0.67-0.203,1.299-0.461,1.884-0.776v-2.524
			c-0.658,0.315-1.243,0.565-1.756,0.749C19.139,23.299,18.67,23.392,18.247,23.392z"/>
	</g>
</g>
<g id="Layer_2">
</g>
</svg>
