<?xml version="1.0" encoding="utf-8"?>
<!-- Generator: Adobe Illustrator 22.0.1, SVG Export Plug-In . SVG Version: 6.00 Build 0)  -->
<svg version="1.1" id="Layer_1" xmlns="http://www.w3.org/2000/svg" xmlns:xlink="http://www.w3.org/1999/xlink" x="0px" y="0px"
	 viewBox="0 0 24 24" style="enable-background:new 0 0 24 24;" xml:space="preserve">
<style type="text/css">
	.st0{fill:#1C1C1C;}
	.st1{fill:#FFFFFF;}
</style>
<path class="st1" d="M20.969,17.969v-13c0-0.121-0.029-0.236-0.07-0.345c-0.011-0.03-0.023-0.057-0.037-0.085
	c-0.044-0.09-0.098-0.174-0.167-0.247c-0.01-0.011-0.017-0.024-0.027-0.034c-0.067-0.066-0.143-0.124-0.228-0.169
	c-0.017-0.009-0.035-0.011-0.052-0.019c-0.027-0.013-0.056-0.021-0.084-0.031c-0.094-0.034-0.19-0.054-0.289-0.058
	c-0.016-0.001-0.03-0.009-0.047-0.009h-11c-0.553,0-1,0.447-1,1v4.5h-1.5v-3c0-0.202-0.122-0.385-0.309-0.462
	C5.975,5.93,5.758,5.972,5.615,6.115l-5,5c-0.195,0.195-0.195,0.512,0,0.707l5,5c0.096,0.096,0.224,0.146,0.354,0.146
	c0.064,0,0.13-0.013,0.191-0.038c0.187-0.077,0.309-0.26,0.309-0.462v-3h1.5v4.5c0,0.553,0.447,1,1,1h4v3
	c0,0.369,0.203,0.708,0.528,0.882c0.147,0.079,0.31,0.118,0.472,0.118c0.194,0,0.388-0.057,0.555-0.168l6-4
	c0.043-0.029,0.079-0.066,0.116-0.1c0.016-0.014,0.033-0.026,0.047-0.041c0.078-0.081,0.138-0.173,0.185-0.274
	c0.011-0.023,0.018-0.046,0.027-0.07C20.94,18.205,20.969,18.09,20.969,17.969z M9.969,16.969v-3.5h1c0.276,0,0.5-0.224,0.5-0.5v-3
	c0-0.276-0.224-0.5-0.5-0.5h-1v-3.5h6.697l-3.252,2.168c-0.278,0.186-0.445,0.498-0.445,0.832v8H9.969z"/>
</svg>
