<?xml version="1.0" encoding="utf-8"?>
<!-- Generator: Adobe Illustrator 22.0.1, SVG Export Plug-In . SVG Version: 6.00 Build 0)  -->
<svg version="1.1" id="Layer_1" xmlns="http://www.w3.org/2000/svg" xmlns:xlink="http://www.w3.org/1999/xlink" x="0px" y="0px"
	 viewBox="0 0 24 24" style="enable-background:new 0 0 24 24;" xml:space="preserve">
<style type="text/css">
	.st0{fill:#1C1C1C;}
	.st1{fill:#FFFFFF;}
</style>
<path class="st1" d="M22.308,12.953c-0.484-2.2-1.917-4.324-3.875-5.675c-1.955-1.377-4.21-2.006-6.384-2.296V1.963
	c0-0.934-1.082-1.451-1.808-0.864L1.863,7.87c-0.55,0.444-0.55,1.283,0,1.727l8.378,6.77c0.726,0.587,1.808,0.07,1.808-0.864v-3.019
	c1.201-0.188,2.367-0.228,3.38,0.066c1.007,0.284,1.9,0.918,2.503,1.927c0.601,0.997,0.864,2.333,0.624,3.637
	c-0.231,1.302-0.977,2.573-2.227,3.383l-0.023,0.015c-0.321,0.208-0.482,0.609-0.37,0.995c0.137,0.472,0.631,0.744,1.103,0.607
	c1.876-0.544,3.563-1.993,4.507-3.858C22.505,17.397,22.815,15.153,22.308,12.953z"/>
</svg>
