<?xml version="1.0" encoding="utf-8"?>
<!-- Generator: Adobe Illustrator 22.0.1, SVG Export Plug-In . SVG Version: 6.00 Build 0)  -->
<svg version="1.1" id="Layer_1" xmlns="http://www.w3.org/2000/svg" xmlns:xlink="http://www.w3.org/1999/xlink" x="0px" y="0px"
	 viewBox="0 0 24 24" style="enable-background:new 0 0 24 24;" xml:space="preserve">
<style type="text/css">
	.st0{fill:#1C1C1C;}
	.st1{fill:#FFFFFF;}
</style>
<g>
	<path class="st1" d="M1.185,18.421v-1.375l0.947-0.134L6.434,5.421h2.189l4.25,11.491l0.946,0.134v1.375H9.685v-1.375l0.928-0.17
		l-0.687-2.044h-4.84l-0.705,2.044l0.937,0.17v1.375H1.185z M5.677,13.109h3.669L7.659,8.296L7.542,7.948H7.489L7.364,8.314
		L5.677,13.109z"/>
	<path class="st1" d="M17.857,18.579c-0.822,0-1.463-0.212-1.922-0.636c-0.458-0.424-0.688-1.007-0.688-1.75
		c0-0.509,0.14-0.954,0.419-1.339c0.279-0.384,0.687-0.684,1.227-0.9c0.538-0.217,1.191-0.325,1.959-0.325h1.233v-0.681
		c0-0.429-0.128-0.771-0.385-1.024c-0.257-0.255-0.629-0.382-1.118-0.382c-0.279,0-0.525,0.034-0.74,0.101
		c-0.214,0.067-0.406,0.164-0.575,0.288l-0.173,1.092h-1.383l-0.016-1.996c0.399-0.26,0.843-0.465,1.331-0.617
		c0.489-0.152,1.032-0.229,1.631-0.229c1.026,0,1.836,0.241,2.427,0.722c0.591,0.481,0.886,1.171,0.886,2.068v3.566
		c0,0.11,0.001,0.217,0.004,0.322c0.002,0.104,0.009,0.206,0.019,0.307l0.822,0.104v1.151h-2.46
		c-0.05-0.175-0.096-0.344-0.139-0.509c-0.042-0.164-0.073-0.329-0.093-0.493c-0.27,0.339-0.595,0.617-0.977,0.834
		C18.766,18.47,18.336,18.579,17.857,18.579z M18.284,17.121c0.379,0,0.732-0.089,1.062-0.266s0.576-0.4,0.74-0.67v-1.354H18.83
		c-0.563,0-0.988,0.131-1.275,0.393c-0.286,0.262-0.43,0.567-0.43,0.916c0,0.314,0.1,0.557,0.299,0.726
		C17.623,17.036,17.91,17.121,18.284,17.121z"/>
</g>
</svg>
