<?xml version="1.0" encoding="utf-8"?>
<!-- Generator: Adobe Illustrator 22.0.1, SVG Export Plug-In . SVG Version: 6.00 Build 0)  -->
<svg version="1.1" xmlns="http://www.w3.org/2000/svg" xmlns:xlink="http://www.w3.org/1999/xlink" x="0px" y="0px"
	 viewBox="0 0 391.905 327.573" style="enable-background:new 0 0 391.905 327.573;" xml:space="preserve">
<style type="text/css">
	.st0{opacity:0.2;}
	.st1{fill:#80DEE5;}
	.st2{fill:#8BD859;}
	.st3{opacity:0.15;fill:#011627;}
	.st4{fill:#513715;}
	.st5{opacity:0.25;fill:#011627;}
	.st6{fill:#D3954A;}
	.st7{fill:#011627;}
	.st8{opacity:0.5;}
	.st9{fill:#FFFFFF;}
	.st10{opacity:0.5;fill:#FFFFFF;}
	.st11{opacity:0.5;fill:#011627;}
	.st12{fill:#63C132;}
	.st13{fill:#8E5B12;}
	.st14{opacity:0.25;fill:none;stroke:#011627;stroke-width:7;stroke-linecap:round;stroke-miterlimit:10;}
	.st15{fill:#FFBB1E;}
	.st16{fill:#FFE226;}
	.st17{fill:#FFF244;}
	.st18{fill:#F6511D;}
	.st19{fill:#011627;stroke:#011627;stroke-width:3.5264;stroke-miterlimit:10;}
	.st20{fill:#8FD5A6;}
	.st21{fill:#48BF84;}
	.st22{fill:#329F5B;}
	.st23{fill:#F9CC2A;}
	.st24{opacity:0.25;fill:#8FD5A6;}
	.st25{fill:#9AD1D4;}
	.st26{fill:#5DB7DE;}
	.st27{fill:#2176FF;}
	.st28{fill:#1B4965;}
	.st29{fill:#FFA9E7;}
	.st30{opacity:0.25;}
	.st31{fill:#AA762B;}
	.st32{fill:#966524;}
	.st33{fill:#E2E2E2;}
	.st34{fill:#143B56;}
	.st35{fill:#6CA4F4;}
	.st36{opacity:0.15;}
	.st37{fill:none;stroke:#FFFFFF;stroke-width:90;stroke-linecap:round;stroke-miterlimit:10;}
	.st38{opacity:0.5;fill:none;stroke:#FFFFFF;stroke-width:3;stroke-linecap:round;stroke-miterlimit:10;}
	.st39{fill:#71C13D;}
	.st40{fill:none;stroke:#8E5B12;stroke-width:10;stroke-linecap:round;stroke-miterlimit:10;}
	.st41{fill:#A4C9F7;}
	.st42{fill:#FFFFFF;stroke:#E8E8E8;stroke-width:10;stroke-miterlimit:10;}
	.st43{fill:#E8E8E8;}
	.st44{fill:#A4C9F7;stroke:#7AA2CE;stroke-width:4;stroke-linecap:round;stroke-linejoin:round;stroke-miterlimit:10;}
	.st45{fill:#CAE5FF;}
	.st46{fill:#CCCCCC;}
	.st47{opacity:0.25;fill:none;stroke:#011627;stroke-width:4.8829;stroke-linecap:round;stroke-miterlimit:10;}
	.st48{fill:#2D2D2D;}
	.st49{fill:#011627;stroke:#011627;stroke-width:8.2967;stroke-miterlimit:10;}
	.st50{fill:#AAAAAA;}
	.st51{fill:#C4C4C4;}
	.st52{fill:#4990C4;}
	.st53{fill:#6EAFEA;}
	.st54{fill:#F4C647;}
	.st55{fill:#F8C815;}
	.st56{fill:#345994;}
	.st57{fill:#3F4040;}
	.st58{fill:none;stroke:#FFFFFF;stroke-width:2;stroke-linecap:round;stroke-linejoin:round;stroke-miterlimit:10;}
	.st59{display:none;fill:#FFFFFF;}
	.st60{fill:#C6C6C6;}
	.st61{fill:#F7F7F7;}
	.st62{fill:#011627;stroke:#011627;stroke-width:5.4418;stroke-miterlimit:10;}
	.st63{fill:#FFCA0C;}
	.st64{fill:none;stroke:#FFFFFF;stroke-width:4;stroke-linecap:round;stroke-linejoin:round;stroke-miterlimit:10;}
	.st65{fill:none;stroke:#E5E5E5;stroke-width:15;stroke-linecap:round;stroke-miterlimit:10;}
	.st66{fill:none;stroke:#FFE226;stroke-width:15;stroke-linecap:round;stroke-miterlimit:10;}
	.st67{opacity:0.45;}
	.st68{fill:#B5B5B5;}
	.st69{fill:none;stroke:#B5B5B5;stroke-width:9;stroke-miterlimit:10;}
	.st70{opacity:0.75;}
	.st71{fill:none;stroke:#FFFFFF;stroke-width:4;stroke-linecap:round;stroke-miterlimit:10;}
	.st72{fill:#DBDBDB;}
	.st73{opacity:0.3;}
	.st74{fill:none;stroke:#353535;stroke-width:4;stroke-linecap:round;stroke-linejoin:round;stroke-miterlimit:10;}
	.st75{fill:none;stroke:#E5E5E5;stroke-width:4;stroke-linecap:round;stroke-linejoin:round;stroke-miterlimit:10;}
	.st76{opacity:0.8;}
	.st77{fill:url(#SVGID_1_);}
	.st78{fill:#F06728;}
	.st79{fill:#F6C718;}
	.st80{fill:#212120;}
	.st81{fill:none;stroke:#000000;stroke-miterlimit:10;}
	.st82{fill:none;stroke:#DDDDDD;stroke-linecap:round;stroke-linejoin:round;}
	.st83{fill:none;stroke:#DDDDDD;stroke-linecap:round;stroke-linejoin:round;stroke-dasharray:5.007,10.014;}
	.st84{fill:none;stroke:#DDDDDD;stroke-linecap:round;stroke-linejoin:round;stroke-dasharray:5.1976,10.3952;}
	.st85{fill:none;stroke:#DDDDDD;stroke-linecap:round;stroke-linejoin:round;stroke-dasharray:5.0075,10.0151;}
	.st86{fill:none;stroke:#DDDDDD;stroke-linecap:round;stroke-linejoin:round;stroke-dasharray:5.0907,10.1814;}
	.st87{fill:none;stroke:#E5E5E5;stroke-width:7;stroke-linecap:round;stroke-miterlimit:10;}
	.st88{fill:none;stroke:#FFE226;stroke-width:7;stroke-linecap:round;stroke-miterlimit:10;}
	.st89{fill:#011627;stroke:#011627;stroke-width:7.7079;stroke-miterlimit:10;}
	.st90{fill:#FFFF4C;}
	.st91{fill:#FFA400;}
	.st92{fill:none;stroke:#BCBCBC;stroke-width:2;stroke-linecap:round;stroke-miterlimit:10;}
	.st93{fill:#BCBCBC;}
	.st94{fill:#3B5998;}
	.st95{fill:none;stroke:#F8C815;stroke-width:5.5603;stroke-linecap:round;stroke-miterlimit:10;}
	.st96{fill:#011627;stroke:#011627;stroke-width:1.9321;stroke-miterlimit:10;}
	.st97{fill:#011627;stroke:#011627;stroke-width:7.8142;stroke-miterlimit:10;}
	.st98{opacity:0.12;fill:#FFFFFF;}
	.st99{opacity:0.13;fill:#FFFFFF;}
	.st100{opacity:0.14;fill:#FFFFFF;}
	.st101{opacity:0.15;fill:#FFFFFF;}
	.st102{opacity:0.16;fill:#FFFFFF;}
	.st103{opacity:0.17;fill:#FFFFFF;}
	.st104{fill:#53AD3D;}
	.st105{opacity:0.25;fill:none;stroke:#000000;stroke-width:5;stroke-linecap:round;stroke-miterlimit:10;}
	.st106{fill:#EDD983;}
	.st107{clip-path:url(#SVGID_4_);}
	.st108{opacity:0.1;fill:#FFFFFF;}
	.st109{opacity:0.18;fill:#FFFFFF;}
	.st110{opacity:0.2;fill:#FFFFFF;}
	.st111{clip-path:url(#SVGID_5_);}
</style>
<g id="Layer_1">
	<path class="st2" d="M329.152,189.171c0,2.55-0.07,5.08-0.21,7.59c-0.86,15.25-4.27,29.82-9.82,43.27
		c-11.28,27.35-31.39,50.14-56.78,64.8c-4.35,2.52-8.86,4.8-13.5,6.81c-16.29,7.09-34.28,11.02-53.18,11.02
		c-7.49,0-14.84-0.62-21.99-1.8c-13.44-2.23-26.21-6.47-37.97-12.39c-13.51-6.8-25.7-15.83-36.1-26.6
		c-8.15-8.44-15.2-17.95-20.91-28.3c-10.53-19.09-16.53-41.04-16.53-64.4c0-3.37,0.12-6.71,0.37-10.02
		c5.13-69.05,62.77-123.47,133.13-123.47c12.4,0,24.4,1.69,35.78,4.85C287.792,76.171,329.152,127.841,329.152,189.171z"/>
	<g>
		<path class="st16" d="M262.342,304.831c-4.35,2.52-8.86,4.8-13.5,6.81c-16.29,7.09-34.28,11.02-53.18,11.02
			c-7.49,0-14.84-0.62-21.99-1.8c-13.44-2.23-26.21-6.47-37.97-12.39c-0.2-13.08,3.67-25.52,10.57-35.91
			c1.77-2.65,3.73-5.17,5.88-7.54c1.87-2.07,3.88-4.02,6.02-5.83c8.64-7.3,19.36-12.4,31.38-14.22c13.74-2.08,27.16,0.42,38.63,6.4
			c1.43,0.75,2.83,1.55,4.2,2.4c1.17,0.71,2.3,1.47,3.42,2.27c13.47,9.56,23.2,24.41,25.88,42.06
			C262.022,300.361,262.242,302.601,262.342,304.831z"/>
		<path class="st90" d="M248.842,311.641c-16.29,7.09-34.28,11.02-53.18,11.02c-7.49,0-14.84-0.62-21.99-1.8
			c-0.15-0.67-0.27-1.35-0.37-2.03c-3.15-20.75,11.12-40.13,31.87-43.28c20.76-3.14,40.13,11.13,43.28,31.88
			C248.662,308.841,248.792,310.251,248.842,311.641z"/>
		<path class="st63" d="M232.383,253.775c-7.04,5.909-15.088,10.866-24.023,14.631c-20.449,8.606-42.213,9.563-62.09,4.154
			c3.314-4.968,7.316-9.488,11.901-13.367c8.642-7.302,19.365-12.399,31.381-14.221
			C205.003,242.628,220.054,246.094,232.383,253.775z"/>
		<circle class="st16" cx="171.64" cy="154.941" r="111.764"/>
		<circle class="st16" cx="30.329" cy="109.904" r="23.124"/>
		<circle class="st63" cx="29.733" cy="114.542" r="13.168"/>
		<circle class="st91" cx="108.035" cy="204.616" r="13.168"/>
		<circle class="st91" cx="255.757" cy="166.088" r="13.168"/>
		<circle class="st16" cx="262.31" cy="39.549" r="23.124"/>
		<circle class="st63" cx="266.063" cy="42.878" r="13.168"/>
		<circle class="st9" cx="132.578" cy="154.404" r="23.124"/>
		<circle class="st7" cx="128.986" cy="154.7" r="16.396"/>
		<circle class="st10" cx="120.372" cy="151.756" r="4.449"/>
		<circle class="st9" cx="211.723" cy="131.159" r="23.124"/>
		<circle class="st7" cx="208.131" cy="131.455" r="16.396"/>
		<circle class="st10" cx="200.016" cy="128.435" r="4.449"/>
		<g>
			<path class="st63" d="M101.544,139.038c-0.518-4.146,0.845-8.237,2.904-11.667c2.095-3.448,4.978-6.342,8.293-8.521
				c3.31-2.188,7.059-3.696,10.952-4.349c3.888-0.618,7.952-0.449,11.657,1.127l0.799,0.34c0.93,0.396,1.362,1.47,0.967,2.399
				c-0.283,0.666-0.917,1.077-1.594,1.111c-6.477,0.315-12.861,2.516-18.285,6.124c-2.71,1.804-5.188,3.963-7.271,6.426
				c-2.078,2.459-3.766,5.238-4.755,8.197c-0.321,0.961-1.361,1.48-2.323,1.159c-0.691-0.231-1.154-0.834-1.24-1.512
				L101.544,139.038z"/>
		</g>
		<g>
			<path class="st63" d="M195.383,96.478c1.434-1.35,2.996-2.462,4.656-3.439c0.809-0.538,1.688-0.93,2.561-1.355
				c0.441-0.199,0.877-0.414,1.329-0.6l1.381-0.504c3.694-1.323,7.826-1.951,12.059-1.595c4.221,0.325,8.489,1.782,11.88,4.235
				c0.82,0.646,1.649,1.273,2.39,1.985c0.717,0.734,1.434,1.461,2.054,2.263c0.604,0.816,1.166,1.666,1.687,2.515
				c0.462,0.913,0.913,1.812,1.247,2.799l0.312,0.921c0.32,0.944-0.187,1.968-1.13,2.288c-0.646,0.219-1.332,0.048-1.801-0.382
				c-2.49-2.294-5.189-4.321-8.125-5.837c-2.93-1.527-6.111-2.461-9.383-2.811c-3.275-0.354-6.633-0.125-9.958,0.475
				c-3.328,0.601-6.627,1.556-9.883,2.681c-0.961,0.332-2.01-0.178-2.342-1.139c-0.244-0.706-0.033-1.46,0.477-1.942L195.383,96.478
				z"/>
		</g>
		<g>
			<path class="st63" d="M143.782,208.968c1.863,3.058,5.264,5.565,8.936,7.373c3.705,1.821,7.781,3.05,11.914,3.721
				c4.132,0.667,8.372,0.752,12.372,0.045c3.984-0.701,7.744-2.276,10.337-4.903c0.998-1.011,2.626-1.021,3.636-0.024
				c0.612,0.604,0.857,1.439,0.734,2.228l-0.294,1.807c-0.52,3.196-2.355,5.977-4.563,8.196c-2.237,2.22-4.908,3.848-7.654,5.025
				c-5.541,2.283-11.369,2.738-16.855,1.923c-5.496-0.828-10.766-2.998-15.247-6.647c-2.224-1.833-4.266-4.036-5.826-6.702
				c-0.761-1.35-1.439-2.748-1.872-4.312c-0.473-1.498-0.664-3.191-0.54-4.818l0.134-1.764c0.109-1.424,1.351-2.491,2.775-2.382
				C142.627,207.8,143.362,208.289,143.782,208.968z"/>
		</g>
		<g>
			<path class="st16" d="M132.794,50.32c1.428-0.411,2.931-0.767,4.344-1.213c1.352-0.494,2.849-0.893,4.104-1.48l1.975-0.823
				l1.832-0.929c0.652-0.292,1.17-0.654,1.738-0.994c0.557-0.345,1.169-0.671,1.633-1.061c2.115-1.458,3.825-3.117,5.042-4.963
				c1.243-1.841,1.981-3.912,2.151-6.254c0.172-2.332-0.27-4.919-1.325-7.443c-1.035-2.535-2.735-4.935-4.811-6.984
				c-2.088-2.03-4.594-3.752-7.363-4.728c-2.761-0.97-5.765-1.265-8.726-0.591c-1.449,0.33-2.89-0.577-3.22-2.026
				c-0.265-1.163,0.268-2.322,1.238-2.904l0.059-0.035c3.581-2.143,8.029-3.144,12.434-2.96c4.423,0.176,8.754,1.487,12.761,3.534
				c3.994,2.077,7.728,4.915,10.818,8.64c3.09,3.703,5.611,8.309,6.874,13.645c1.289,5.305,1.147,11.323-0.461,16.809
				c-0.428,1.333-0.876,2.699-1.39,4.022c-0.56,1.259-1.152,2.524-1.774,3.787c-0.664,1.17-1.363,2.33-2.085,3.495
				c-0.727,1.147-1.518,2.142-2.308,3.219c-0.79,1.101-1.626,2.007-2.472,2.966c-0.847,0.946-1.712,1.937-2.594,2.748l-2.686,2.551
				c-0.905,0.787-1.818,1.527-2.744,2.29l-1.397,1.135c-0.468,0.372-0.929,0.685-1.398,1.03l-2.831,2.022
				c-1.896,1.294-3.79,2.429-5.73,3.644c-7.687,4.813-17.819,2.483-22.632-5.203s-2.483-17.819,5.203-22.632
				c1.307-0.818,2.684-1.43,4.094-1.844L132.794,50.32z"/>
		</g>
		<circle class="st16" cx="78.053" cy="275.914" r="22.349"/>
		<circle class="st16" cx="321.35" cy="217.786" r="22.349"/>
		<path class="st89" d="M173.044,181.927l25.775-8.319c1.743-0.563,3.213,1.396,2.186,2.913l-8.878,13.107
			c-0.466,0.688-1.32,0.999-2.119,0.773l-16.897-4.788C171.277,185.093,171.231,182.512,173.044,181.927z"/>
	</g>
</g>
<g id="Layer_2">
</g>
</svg>
