<?xml version="1.0" encoding="utf-8"?>
<!-- Generator: Adobe Illustrator 22.0.1, SVG Export Plug-In . SVG Version: 6.00 Build 0)  -->
<svg version="1.1" xmlns="http://www.w3.org/2000/svg" xmlns:xlink="http://www.w3.org/1999/xlink" x="0px" y="0px"
	 viewBox="0 0 307.206 280.415" style="enable-background:new 0 0 307.206 280.415;" xml:space="preserve">
<style type="text/css">
	.st0{opacity:0.2;}
	.st1{fill:#80DEE5;}
	.st2{fill:#8BD859;}
	.st3{opacity:0.15;fill:#011627;}
	.st4{fill:#513715;}
	.st5{opacity:0.25;fill:#011627;}
	.st6{fill:#D3954A;}
	.st7{fill:#011627;}
	.st8{opacity:0.5;}
	.st9{fill:#FFFFFF;}
	.st10{opacity:0.5;fill:#FFFFFF;}
	.st11{opacity:0.5;fill:#011627;}
	.st12{fill:#63C132;}
	.st13{fill:#8E5B12;}
	.st14{opacity:0.25;fill:none;stroke:#011627;stroke-width:7;stroke-linecap:round;stroke-miterlimit:10;}
	.st15{fill:#FFBB1E;}
	.st16{fill:#FFE226;}
	.st17{fill:#FFF244;}
	.st18{fill:#F6511D;}
	.st19{fill:#011627;stroke:#011627;stroke-width:3.5264;stroke-miterlimit:10;}
	.st20{fill:#8FD5A6;}
	.st21{fill:#48BF84;}
	.st22{fill:#329F5B;}
	.st23{fill:#F9CC2A;}
	.st24{opacity:0.25;fill:#8FD5A6;}
	.st25{fill:#9AD1D4;}
	.st26{fill:#5DB7DE;}
	.st27{fill:#2176FF;}
	.st28{fill:#1B4965;}
	.st29{fill:#FFA9E7;}
	.st30{opacity:0.25;}
	.st31{fill:#AA762B;}
	.st32{fill:#966524;}
	.st33{fill:#E2E2E2;}
	.st34{fill:#143B56;}
	.st35{fill:#6CA4F4;}
	.st36{opacity:0.15;}
	.st37{fill:none;stroke:#FFFFFF;stroke-width:90;stroke-linecap:round;stroke-miterlimit:10;}
	.st38{opacity:0.5;fill:none;stroke:#FFFFFF;stroke-width:3;stroke-linecap:round;stroke-miterlimit:10;}
	.st39{fill:#71C13D;}
	.st40{fill:none;stroke:#8E5B12;stroke-width:10;stroke-linecap:round;stroke-miterlimit:10;}
	.st41{fill:#A4C9F7;}
	.st42{fill:#FFFFFF;stroke:#E8E8E8;stroke-width:10;stroke-miterlimit:10;}
	.st43{fill:#E8E8E8;}
	.st44{fill:#A4C9F7;stroke:#7AA2CE;stroke-width:4;stroke-linecap:round;stroke-linejoin:round;stroke-miterlimit:10;}
	.st45{fill:#CAE5FF;}
	.st46{fill:#CCCCCC;}
	.st47{opacity:0.25;fill:none;stroke:#011627;stroke-width:4.8829;stroke-linecap:round;stroke-miterlimit:10;}
	.st48{fill:#2D2D2D;}
	.st49{fill:#011627;stroke:#011627;stroke-width:8.2967;stroke-miterlimit:10;}
	.st50{fill:#AAAAAA;}
	.st51{fill:#C4C4C4;}
	.st52{fill:#4990C4;}
	.st53{fill:#6EAFEA;}
	.st54{fill:#F4C647;}
	.st55{fill:#F8C815;}
	.st56{fill:#345994;}
	.st57{fill:#3F4040;}
	.st58{fill:none;stroke:#FFFFFF;stroke-width:2;stroke-linecap:round;stroke-linejoin:round;stroke-miterlimit:10;}
	.st59{display:none;fill:#FFFFFF;}
	.st60{fill:#C6C6C6;}
	.st61{fill:#F7F7F7;}
	.st62{fill:#011627;stroke:#011627;stroke-width:5.4418;stroke-miterlimit:10;}
	.st63{fill:#FFCA0C;}
	.st64{fill:none;stroke:#FFFFFF;stroke-width:4;stroke-linecap:round;stroke-linejoin:round;stroke-miterlimit:10;}
	.st65{fill:none;stroke:#E5E5E5;stroke-width:15;stroke-linecap:round;stroke-miterlimit:10;}
	.st66{fill:none;stroke:#FFE226;stroke-width:15;stroke-linecap:round;stroke-miterlimit:10;}
	.st67{opacity:0.45;}
	.st68{fill:#B5B5B5;}
	.st69{fill:none;stroke:#B5B5B5;stroke-width:9;stroke-miterlimit:10;}
	.st70{opacity:0.75;}
	.st71{fill:none;stroke:#FFFFFF;stroke-width:4;stroke-linecap:round;stroke-miterlimit:10;}
	.st72{fill:#DBDBDB;}
	.st73{opacity:0.3;}
	.st74{fill:none;stroke:#353535;stroke-width:4;stroke-linecap:round;stroke-linejoin:round;stroke-miterlimit:10;}
	.st75{fill:none;stroke:#E5E5E5;stroke-width:4;stroke-linecap:round;stroke-linejoin:round;stroke-miterlimit:10;}
	.st76{opacity:0.8;}
	.st77{fill:url(#SVGID_1_);}
	.st78{fill:#F06728;}
	.st79{fill:#F6C718;}
	.st80{fill:#212120;}
	.st81{fill:none;stroke:#000000;stroke-miterlimit:10;}
	.st82{fill:none;stroke:#DDDDDD;stroke-linecap:round;stroke-linejoin:round;}
	.st83{fill:none;stroke:#DDDDDD;stroke-linecap:round;stroke-linejoin:round;stroke-dasharray:5.007,10.014;}
	.st84{fill:none;stroke:#DDDDDD;stroke-linecap:round;stroke-linejoin:round;stroke-dasharray:5.1976,10.3952;}
	.st85{fill:none;stroke:#DDDDDD;stroke-linecap:round;stroke-linejoin:round;stroke-dasharray:5.0075,10.0151;}
	.st86{fill:none;stroke:#DDDDDD;stroke-linecap:round;stroke-linejoin:round;stroke-dasharray:5.0907,10.1814;}
	.st87{fill:none;stroke:#E5E5E5;stroke-width:7;stroke-linecap:round;stroke-miterlimit:10;}
	.st88{fill:none;stroke:#FFE226;stroke-width:7;stroke-linecap:round;stroke-miterlimit:10;}
	.st89{fill:#011627;stroke:#011627;stroke-width:7.7079;stroke-miterlimit:10;}
	.st90{fill:none;stroke:#BCBCBC;stroke-width:2;stroke-linecap:round;stroke-miterlimit:10;}
	.st91{fill:#BCBCBC;}
	.st92{fill:#3B5998;}
	.st93{fill:none;stroke:#F8C815;stroke-width:5.5603;stroke-linecap:round;stroke-miterlimit:10;}
	.st94{fill:#011627;stroke:#011627;stroke-width:1.9321;stroke-miterlimit:10;}
	.st95{fill:#011627;stroke:#011627;stroke-width:7.8142;stroke-miterlimit:10;}
	.st96{fill:#FFA400;}
	.st97{opacity:0.12;fill:#FFFFFF;}
	.st98{opacity:0.13;fill:#FFFFFF;}
	.st99{opacity:0.14;fill:#FFFFFF;}
	.st100{opacity:0.15;fill:#FFFFFF;}
	.st101{opacity:0.16;fill:#FFFFFF;}
	.st102{opacity:0.17;fill:#FFFFFF;}
	.st103{fill:#53AD3D;}
	.st104{opacity:0.25;fill:none;stroke:#000000;stroke-width:5;stroke-linecap:round;stroke-miterlimit:10;}
	.st105{fill:#EDD983;}
	.st106{clip-path:url(#SVGID_4_);}
	.st107{opacity:0.1;fill:#FFFFFF;}
	.st108{opacity:0.18;fill:#FFFFFF;}
	.st109{opacity:0.2;fill:#FFFFFF;}
	.st110{clip-path:url(#SVGID_5_);}
</style>
<g id="Layer_1">
	<g>
		<path class="st2" d="M291.113,140.212c0,25.96-7.41,50.2-20.24,70.7c-6.14,9.82-13.53,18.78-21.94,26.67
			c-6.39,6-13.37,11.37-20.84,16.02c-20.46,12.74-44.6,20.1-70.47,20.1c-25.13,0-48.64-6.94-68.71-19.02
			c-6.99-4.2-13.57-9.03-19.65-14.4c-9.7-8.57-18.14-18.53-25.02-29.56c-12.75-20.46-20.12-44.63-20.12-70.51
			c0-73.73,59.77-133.5,133.5-133.5C231.343,6.712,291.113,66.482,291.113,140.212z"/>
		<path class="st16" d="M270.873,210.912c-6.14,9.82-13.53,18.78-21.94,26.67c-6.39,6-13.37,11.37-20.84,16.02
			c-20.46,12.74-44.6,20.1-70.47,20.1c-25.13,0-48.64-6.94-68.71-19.02c-6.99-4.2-13.57-9.03-19.65-14.4
			c-9.7-8.57-18.14-18.53-25.02-29.56c0.01-3.99,0.23-8.03,0.68-12.09c6.8-62.21,62.74-107.13,124.94-100.33
			C227.923,104.652,270.933,153.802,270.873,210.912z"/>
		<circle class="st16" cx="30.798" cy="130.068" r="23.443"/>
		<circle class="st63" cx="29.008" cy="134.457" r="13.349"/>
		<path class="st96" d="M95.583,244.532c-0.49,4.43-3.08,8.11-6.67,10.15c-6.99-4.2-13.57-9.03-19.65-14.4
			c1.41-6.62,7.63-11.22,14.5-10.47C91.093,230.612,96.383,237.202,95.583,244.532z"/>
		<path class="st96" d="M248.933,237.582c-6.39,6-13.37,11.37-20.84,16.02c-3.04-2.77-4.76-6.91-4.28-11.32
			c0.8-7.33,7.39-12.62,14.72-11.82C243.143,230.972,246.943,233.762,248.933,237.582z"/>
		<circle class="st16" cx="276.407" cy="121.443" r="23.443"/>
		<circle class="st63" cx="279.219" cy="125.681" r="13.349"/>
		<circle class="st9" cx="119.421" cy="200.258" r="23.443"/>
		<circle class="st7" cx="121.421" cy="205.758" r="16.622"/>
		<circle class="st10" cx="113.747" cy="200.634" r="4.51"/>
		<circle class="st9" cx="203.019" cy="198.059" r="23.443"/>
		<circle class="st7" cx="201.769" cy="203.918" r="16.622"/>
		<circle class="st10" cx="194.603" cy="198.849" r="4.51"/>
		<g>
			<path class="st63" d="M93.006,177.132c0.571-4.197,2.969-7.852,5.879-10.677c2.949-2.834,6.527-4.92,10.342-6.193
				c3.812-1.284,7.878-1.786,11.862-1.414c3.971,0.405,7.909,1.627,11.13,4.135l0.695,0.541c0.808,0.629,0.953,1.794,0.324,2.603
				c-0.451,0.579-1.179,0.816-1.851,0.674c-6.429-1.376-13.257-0.878-19.51,1.247c-3.125,1.063-6.114,2.534-8.795,4.406
				c-2.675,1.87-5.052,4.153-6.791,6.795c-0.565,0.859-1.719,1.097-2.578,0.532c-0.617-0.406-0.914-1.117-0.822-1.803
				L93.006,177.132z"/>
		</g>
		<g>
			<path class="st63" d="M196.024,159.826c1.757-0.95,3.576-1.634,5.457-2.159c0.933-0.316,1.896-0.473,2.862-0.662
				c0.484-0.08,0.967-0.177,1.458-0.243l1.484-0.135c3.964-0.336,8.176,0.123,12.231,1.572c4.052,1.416,7.855,3.954,10.54,7.239
				c0.636,0.846,1.285,1.676,1.825,2.566c0.512,0.906,1.026,1.805,1.425,2.751c0.379,0.957,0.709,1.935,0.999,2.903
				c0.216,1.015,0.423,2.012,0.494,3.066l0.066,0.984c0.068,1.008-0.695,1.88-1.702,1.948c-0.69,0.046-1.318-0.299-1.666-0.843
				c-1.843-2.896-3.962-5.583-6.444-7.832c-2.474-2.258-5.348-4-8.463-5.194c-3.117-1.199-6.467-1.847-9.881-2.123
				c-3.417-0.277-6.898-0.198-10.382,0.057c-1.029,0.075-1.924-0.697-1.999-1.726c-0.055-0.756,0.347-1.439,0.972-1.779
				L196.024,159.826z"/>
		</g>
		<g>
			<path class="st16" d="M146.695,98.323c1.506-0.032,3.072,0.01,4.572-0.059c1.453-0.132,3.024-0.134,4.406-0.383l2.149-0.293
				l2.037-0.434c0.714-0.116,1.317-0.337,1.961-0.522c0.636-0.193,1.32-0.354,1.876-0.615c2.451-0.879,4.558-2.06,6.231-3.552
				c1.697-1.48,2.958-3.318,3.734-5.568c0.775-2.24,1.015-4.891,0.637-7.638c-0.355-2.754-1.397-5.547-2.899-8.094
				c-1.518-2.532-3.526-4.871-5.986-6.547c-2.453-1.669-5.32-2.738-8.397-2.848c-1.505-0.053-2.682-1.317-2.629-2.822
				c0.043-1.209,0.866-2.206,1.968-2.524l0.067-0.018c4.067-1.169,8.685-0.993,12.954,0.332c4.288,1.322,8.191,3.733,11.586,6.781
				c3.374,3.074,6.295,6.825,8.354,11.279c2.065,4.432,3.338,9.601,3.188,15.158c-0.117,5.534-1.82,11.393-4.822,16.351
				c-0.766,1.194-1.56,2.417-2.407,3.58c-0.876,1.088-1.785,2.174-2.723,3.249c-0.956,0.974-1.942,1.929-2.952,2.883
				c-1.01,0.935-2.044,1.704-3.099,2.554c-1.061,0.873-2.115,1.544-3.194,2.264c-1.076,0.707-2.181,1.453-3.256,2.018l-3.295,1.801
				c-1.091,0.536-2.178,1.024-3.285,1.531l-1.664,0.749c-0.555,0.243-1.089,0.43-1.637,0.646l-3.3,1.245
				c-2.194,0.776-4.345,1.395-6.562,2.081c-8.783,2.718-18.107-2.2-20.824-10.983c-2.718-8.783,2.2-18.107,10.983-20.824
				c1.493-0.462,3.002-0.703,4.491-0.742L146.695,98.323z"/>
		</g>
		<path class="st95" d="M151.917,237.748l27.42-1.45c1.854-0.098,2.785,2.204,1.385,3.422l-12.107,10.535
			c-0.635,0.553-1.554,0.636-2.278,0.206l-15.312-9.085C149.363,240.392,149.988,237.85,151.917,237.748z"/>
	</g>
</g>
<g id="Layer_2">
</g>
</svg>
